<?xml version="1.0" encoding="UTF-8" standalone="no"?>
<!DOCTYPE svg PUBLIC "-//W3C//DTD SVG 1.1//EN"
 "http://www.w3.org/Graphics/SVG/1.1/DTD/svg11.dtd">
<!-- Generated by graphviz version 2.36.0 (20140111.2315)
 -->
<!-- Title: controllers_diagram Pages: 1 -->
<svg width="1090pt" height="892pt"
 viewBox="0.00 0.00 1090.00 892.00" xmlns="http://www.w3.org/2000/svg" xmlns:xlink="http://www.w3.org/1999/xlink">
<g id="graph0" class="graph" transform="scale(1 1) rotate(0) translate(4 888)">
<title>controllers_diagram</title>
<polygon fill="white" stroke="none" points="-4,4 -4,-888 1086,-888 1086,4 -4,4"/>
<!-- _diagram_info -->
<g id="node1" class="node"><title>_diagram_info</title>
<text text-anchor="start" x="876" y="-869.6" font-family="Times,serif" font-size="13.00">Controllers diagram</text>
<text text-anchor="start" x="876" y="-855.6" font-family="Times,serif" font-size="13.00">Date: Jun 12 2014 &#45; 12:12</text>
<text text-anchor="start" x="876" y="-841.6" font-family="Times,serif" font-size="13.00">Migration version: 20140607155839</text>
<text text-anchor="start" x="876" y="-827.6" font-family="Times,serif" font-size="13.00">Generated by RailRoady 1.1.1</text>
<text text-anchor="start" x="876" y="-813.6" font-family="Times,serif" font-size="13.00">http://railroady.prestonlee.com</text>
</g>
<!-- SearchesController -->
<g id="node2" class="node"><title>SearchesController</title>
<path fill="none" stroke="black" d="M12,-251.107C12,-251.107 108,-251.107 108,-251.107 114,-251.107 120,-257.107 120,-263.107 120,-263.107 120,-332.107 120,-332.107 120,-338.107 114,-344.107 108,-344.107 108,-344.107 12,-344.107 12,-344.107 6,-344.107 0,-338.107 0,-332.107 0,-332.107 0,-263.107 0,-263.107 0,-257.107 6,-251.107 12,-251.107"/>
<text text-anchor="middle" x="60" y="-328.907" font-family="Times,serif" font-size="14.00">SearchesController</text>
<polyline fill="none" stroke="black" points="0,-321.107 120,-321.107 "/>
<text text-anchor="start" x="8" y="-305.907" font-family="Times,serif" font-size="14.00">search</text>
<polyline fill="none" stroke="black" points="0,-298.107 120,-298.107 "/>
<polyline fill="none" stroke="black" points="0,-274.107 120,-274.107 "/>
<text text-anchor="start" x="8" y="-258.907" font-family="Times,serif" font-size="14.00">_layout</text>
</g>
<!-- User::CoursesController -->
<g id="node3" class="node"><title>User::CoursesController</title>
<path fill="none" stroke="black" d="M453.04,-417.627C453.04,-417.627 578.04,-417.627 578.04,-417.627 584.04,-417.627 590.04,-423.627 590.04,-429.627 590.04,-429.627 590.04,-498.627 590.04,-498.627 590.04,-504.627 584.04,-510.627 578.04,-510.627 578.04,-510.627 453.04,-510.627 453.04,-510.627 447.04,-510.627 441.04,-504.627 441.04,-498.627 441.04,-498.627 441.04,-429.627 441.04,-429.627 441.04,-423.627 447.04,-417.627 453.04,-417.627"/>
<text text-anchor="middle" x="515.54" y="-495.427" font-family="Times,serif" font-size="14.00">User::CoursesController</text>
<polyline fill="none" stroke="black" points="441.04,-487.627 590.04,-487.627 "/>
<text text-anchor="start" x="449.04" y="-472.427" font-family="Times,serif" font-size="14.00">index</text>
<polyline fill="none" stroke="black" points="441.04,-464.627 590.04,-464.627 "/>
<polyline fill="none" stroke="black" points="441.04,-440.627 590.04,-440.627 "/>
<text text-anchor="start" x="449.04" y="-425.427" font-family="Times,serif" font-size="14.00">_layout</text>
</g>
<!-- UsersController -->
<g id="node4" class="node"><title>UsersController</title>
<path fill="none" stroke="black" d="M269.925,-21.6995C269.925,-21.6995 348.925,-21.6995 348.925,-21.6995 354.925,-21.6995 360.925,-27.6995 360.925,-33.6995 360.925,-33.6995 360.925,-132.7 360.925,-132.7 360.925,-138.7 354.925,-144.7 348.925,-144.7 348.925,-144.7 269.925,-144.7 269.925,-144.7 263.925,-144.7 257.925,-138.7 257.925,-132.7 257.925,-132.7 257.925,-33.6995 257.925,-33.6995 257.925,-27.6995 263.925,-21.6995 269.925,-21.6995"/>
<text text-anchor="middle" x="309.425" y="-129.5" font-family="Times,serif" font-size="14.00">UsersController</text>
<polyline fill="none" stroke="black" points="257.925,-121.7 360.925,-121.7 "/>
<text text-anchor="start" x="265.925" y="-106.5" font-family="Times,serif" font-size="14.00">edit</text>
<text text-anchor="start" x="265.925" y="-91.4995" font-family="Times,serif" font-size="14.00">update</text>
<polyline fill="none" stroke="black" points="257.925,-83.6995 360.925,-83.6995 "/>
<polyline fill="none" stroke="black" points="257.925,-59.6995 360.925,-59.6995 "/>
<text text-anchor="start" x="265.925" y="-44.4995" font-family="Times,serif" font-size="14.00">_layout</text>
<text text-anchor="start" x="265.925" y="-29.4995" font-family="Times,serif" font-size="14.00">user_params</text>
</g>
<!-- QuizSubmissionsController -->
<g id="node5" class="node"><title>QuizSubmissionsController</title>
<path fill="none" stroke="black" d="M241.276,-587.395C241.276,-587.395 384.276,-587.395 384.276,-587.395 390.276,-587.395 396.276,-593.395 396.276,-599.395 396.276,-599.395 396.276,-683.395 396.276,-683.395 396.276,-689.395 390.276,-695.395 384.276,-695.395 384.276,-695.395 241.276,-695.395 241.276,-695.395 235.276,-695.395 229.276,-689.395 229.276,-683.395 229.276,-683.395 229.276,-599.395 229.276,-599.395 229.276,-593.395 235.276,-587.395 241.276,-587.395"/>
<text text-anchor="middle" x="312.776" y="-680.195" font-family="Times,serif" font-size="14.00">QuizSubmissionsController</text>
<polyline fill="none" stroke="black" points="229.276,-672.395 396.276,-672.395 "/>
<text text-anchor="start" x="237.276" y="-657.195" font-family="Times,serif" font-size="14.00">create</text>
<text text-anchor="start" x="237.276" y="-642.195" font-family="Times,serif" font-size="14.00">show</text>
<polyline fill="none" stroke="black" points="229.276,-634.395 396.276,-634.395 "/>
<polyline fill="none" stroke="black" points="229.276,-610.395 396.276,-610.395 "/>
<text text-anchor="start" x="237.276" y="-595.195" font-family="Times,serif" font-size="14.00">_layout</text>
</g>
<!-- ApplicationController -->
<g id="node6" class="node"><title>ApplicationController</title>
<path fill="none" stroke="black" d="M248.244,-402.588C248.244,-402.588 360.244,-402.588 360.244,-402.588 366.244,-402.588 372.244,-408.588 372.244,-414.588 372.244,-414.588 372.244,-483.588 372.244,-483.588 372.244,-489.588 366.244,-495.588 360.244,-495.588 360.244,-495.588 248.244,-495.588 248.244,-495.588 242.244,-495.588 236.244,-489.588 236.244,-483.588 236.244,-483.588 236.244,-414.588 236.244,-414.588 236.244,-408.588 242.244,-402.588 248.244,-402.588"/>
<text text-anchor="middle" x="304.244" y="-480.388" font-family="Times,serif" font-size="14.00">ApplicationController</text>
<polyline fill="none" stroke="black" points="236.244,-472.588 372.244,-472.588 "/>
<text text-anchor="start" x="244.244" y="-457.388" font-family="Times,serif" font-size="14.00">current_user</text>
<polyline fill="none" stroke="black" points="236.244,-449.588 372.244,-449.588 "/>
<polyline fill="none" stroke="black" points="236.244,-425.588 372.244,-425.588 "/>
<text text-anchor="start" x="244.244" y="-410.388" font-family="Times,serif" font-size="14.00">_layout</text>
</g>
<!-- ApplicationController&#45;&gt;SearchesController -->
<g id="edge1" class="edge"><title>ApplicationController&#45;&gt;SearchesController</title>
<path fill="none" stroke="black" d="M236.211,-408.067C215.967,-395.77 193.77,-382.197 173.454,-369.579 156.116,-358.811 137.375,-346.996 120.217,-336.107"/>
</g>
<!-- ApplicationController&#45;&gt;User::CoursesController -->
<g id="edge2" class="edge"><title>ApplicationController&#45;&gt;User::CoursesController</title>
<path fill="none" stroke="black" d="M372.263,-453.929C394.099,-455.483 418.402,-457.213 440.699,-458.8"/>
</g>
<!-- ApplicationController&#45;&gt;UsersController -->
<g id="edge3" class="edge"><title>ApplicationController&#45;&gt;UsersController</title>
<path fill="none" stroke="black" d="M304.906,-402.376C305.833,-336.874 307.522,-217.617 308.552,-144.883"/>
</g>
<!-- ApplicationController&#45;&gt;QuizSubmissionsController -->
<g id="edge4" class="edge"><title>ApplicationController&#45;&gt;QuizSubmissionsController</title>
<path fill="none" stroke="black" d="M306.31,-495.64C307.533,-523.208 309.088,-558.266 310.367,-587.091"/>
</g>
<!-- LandingController -->
<g id="node7" class="node"><title>LandingController</title>
<path fill="none" stroke="black" d="M30.8123,-600.811C30.8123,-600.811 151.812,-600.811 151.812,-600.811 157.812,-600.811 163.812,-606.811 163.812,-612.811 163.812,-612.811 163.812,-696.811 163.812,-696.811 163.812,-702.811 157.812,-708.811 151.812,-708.811 151.812,-708.811 30.8123,-708.811 30.8123,-708.811 24.8123,-708.811 18.8123,-702.811 18.8123,-696.811 18.8123,-696.811 18.8123,-612.811 18.8123,-612.811 18.8123,-606.811 24.8123,-600.811 30.8123,-600.811"/>
<text text-anchor="middle" x="91.3123" y="-693.611" font-family="Times,serif" font-size="14.00">LandingController</text>
<polyline fill="none" stroke="black" points="18.8123,-685.811 163.812,-685.811 "/>
<text text-anchor="start" x="26.8123" y="-670.611" font-family="Times,serif" font-size="14.00">show</text>
<polyline fill="none" stroke="black" points="18.8123,-662.811 163.812,-662.811 "/>
<polyline fill="none" stroke="black" points="18.8123,-638.811 163.812,-638.811 "/>
<text text-anchor="start" x="26.8123" y="-623.611" font-family="Times,serif" font-size="14.00">_layout</text>
<text text-anchor="start" x="26.8123" y="-608.611" font-family="Times,serif" font-size="14.00">skip_landing_if_logged</text>
</g>
<!-- ApplicationController&#45;&gt;LandingController -->
<g id="edge5" class="edge"><title>ApplicationController&#45;&gt;LandingController</title>
<path fill="none" stroke="black" d="M255.927,-495.77C223.656,-526.948 181.103,-568.06 147.347,-600.674"/>
</g>
<!-- LessonsController -->
<g id="node8" class="node"><title>LessonsController</title>
<path fill="none" stroke="black" d="M40.7253,-0.5C40.7253,-0.5 132.725,-0.5 132.725,-0.5 138.725,-0.5 144.725,-6.5 144.725,-12.5 144.725,-12.5 144.725,-171.5 144.725,-171.5 144.725,-177.5 138.725,-183.5 132.725,-183.5 132.725,-183.5 40.7253,-183.5 40.7253,-183.5 34.7253,-183.5 28.7253,-177.5 28.7253,-171.5 28.7253,-171.5 28.7253,-12.5 28.7253,-12.5 28.7253,-6.5 34.7253,-0.5 40.7253,-0.5"/>
<text text-anchor="middle" x="86.7253" y="-168.3" font-family="Times,serif" font-size="14.00">LessonsController</text>
<polyline fill="none" stroke="black" points="28.7253,-160.5 144.725,-160.5 "/>
<text text-anchor="start" x="36.7253" y="-145.3" font-family="Times,serif" font-size="14.00">create</text>
<text text-anchor="start" x="36.7253" y="-130.3" font-family="Times,serif" font-size="14.00">destroy</text>
<text text-anchor="start" x="36.7253" y="-115.3" font-family="Times,serif" font-size="14.00">index</text>
<text text-anchor="start" x="36.7253" y="-100.3" font-family="Times,serif" font-size="14.00">new</text>
<text text-anchor="start" x="36.7253" y="-85.3" font-family="Times,serif" font-size="14.00">show</text>
<polyline fill="none" stroke="black" points="28.7253,-77.5 144.725,-77.5 "/>
<polyline fill="none" stroke="black" points="28.7253,-53.5 144.725,-53.5 "/>
<text text-anchor="start" x="36.7253" y="-38.3" font-family="Times,serif" font-size="14.00">_layout</text>
<text text-anchor="start" x="36.7253" y="-23.3" font-family="Times,serif" font-size="14.00">lesson_params</text>
<text text-anchor="start" x="36.7253" y="-8.3" font-family="Times,serif" font-size="14.00">set_course</text>
</g>
<!-- ApplicationController&#45;&gt;LessonsController -->
<g id="edge6" class="edge"><title>ApplicationController&#45;&gt;LessonsController</title>
<path fill="none" stroke="black" d="M235.97,-419.816C213.362,-407.222 189.824,-390.511 173.454,-369.579 150.516,-340.248 125.218,-252.568 107.896,-183.513"/>
</g>
<!-- CoursesController -->
<g id="node10" class="node"><title>CoursesController</title>
<path fill="none" stroke="black" d="M188.654,-168.379C188.654,-168.379 280.654,-168.379 280.654,-168.379 286.654,-168.379 292.654,-174.379 292.654,-180.379 292.654,-180.379 292.654,-354.379 292.654,-354.379 292.654,-360.379 286.654,-366.379 280.654,-366.379 280.654,-366.379 188.654,-366.379 188.654,-366.379 182.654,-366.379 176.654,-360.379 176.654,-354.379 176.654,-354.379 176.654,-180.379 176.654,-180.379 176.654,-174.379 182.654,-168.379 188.654,-168.379"/>
<text text-anchor="middle" x="234.654" y="-351.179" font-family="Times,serif" font-size="14.00">CoursesController</text>
<polyline fill="none" stroke="black" points="176.654,-343.379 292.654,-343.379 "/>
<text text-anchor="start" x="184.654" y="-328.179" font-family="Times,serif" font-size="14.00">create</text>
<text text-anchor="start" x="184.654" y="-313.179" font-family="Times,serif" font-size="14.00">destroy</text>
<text text-anchor="start" x="184.654" y="-298.179" font-family="Times,serif" font-size="14.00">edit</text>
<text text-anchor="start" x="184.654" y="-283.179" font-family="Times,serif" font-size="14.00">index</text>
<text text-anchor="start" x="184.654" y="-268.179" font-family="Times,serif" font-size="14.00">new</text>
<text text-anchor="start" x="184.654" y="-253.179" font-family="Times,serif" font-size="14.00">show</text>
<text text-anchor="start" x="184.654" y="-238.179" font-family="Times,serif" font-size="14.00">update</text>
<polyline fill="none" stroke="black" points="176.654,-230.379 292.654,-230.379 "/>
<polyline fill="none" stroke="black" points="176.654,-206.379 292.654,-206.379 "/>
<text text-anchor="start" x="184.654" y="-191.179" font-family="Times,serif" font-size="14.00">_layout</text>
<text text-anchor="start" x="184.654" y="-176.179" font-family="Times,serif" font-size="14.00">course_params</text>
</g>
<!-- ApplicationController&#45;&gt;CoursesController -->
<g id="edge8" class="edge"><title>ApplicationController&#45;&gt;CoursesController</title>
<path fill="none" stroke="black" d="M286.323,-402.294C282.095,-391.252 277.427,-379.066 272.679,-366.668"/>
</g>
<!-- CourseTeachersController -->
<g id="node11" class="node"><title>CourseTeachersController</title>
<path fill="none" stroke="black" d="M449.529,-30.0619C449.529,-30.0619 584.529,-30.0619 584.529,-30.0619 590.529,-30.0619 596.529,-36.0619 596.529,-42.0619 596.529,-42.0619 596.529,-126.062 596.529,-126.062 596.529,-132.062 590.529,-138.062 584.529,-138.062 584.529,-138.062 449.529,-138.062 449.529,-138.062 443.529,-138.062 437.529,-132.062 437.529,-126.062 437.529,-126.062 437.529,-42.0619 437.529,-42.0619 437.529,-36.0619 443.529,-30.0619 449.529,-30.0619"/>
<text text-anchor="middle" x="517.029" y="-122.862" font-family="Times,serif" font-size="14.00">CourseTeachersController</text>
<polyline fill="none" stroke="black" points="437.529,-115.062 596.529,-115.062 "/>
<text text-anchor="start" x="445.529" y="-99.8619" font-family="Times,serif" font-size="14.00">create</text>
<text text-anchor="start" x="445.529" y="-84.8619" font-family="Times,serif" font-size="14.00">destroy</text>
<polyline fill="none" stroke="black" points="437.529,-77.0619 596.529,-77.0619 "/>
<polyline fill="none" stroke="black" points="437.529,-53.0619 596.529,-53.0619 "/>
<text text-anchor="start" x="445.529" y="-37.8619" font-family="Times,serif" font-size="14.00">_layout</text>
</g>
<!-- ApplicationController&#45;&gt;CourseTeachersController -->
<g id="edge9" class="edge"><title>ApplicationController&#45;&gt;CourseTeachersController</title>
<path fill="none" stroke="black" d="M300.83,-402.295C299.129,-346.895 303.869,-254.05 346.832,-189.739 368.663,-157.058 404.383,-132.638 437.476,-115.554"/>
</g>
<!-- QuizzesController -->
<g id="node12" class="node"><title>QuizzesController</title>
<path fill="none" stroke="black" d="M362.032,-192.939C362.032,-192.939 454.032,-192.939 454.032,-192.939 460.032,-192.939 466.032,-198.939 466.032,-204.939 466.032,-204.939 466.032,-348.939 466.032,-348.939 466.032,-354.939 460.032,-360.939 454.032,-360.939 454.032,-360.939 362.032,-360.939 362.032,-360.939 356.032,-360.939 350.032,-354.939 350.032,-348.939 350.032,-348.939 350.032,-204.939 350.032,-204.939 350.032,-198.939 356.032,-192.939 362.032,-192.939"/>
<text text-anchor="middle" x="408.032" y="-345.739" font-family="Times,serif" font-size="14.00">QuizzesController</text>
<polyline fill="none" stroke="black" points="350.032,-337.939 466.032,-337.939 "/>
<text text-anchor="start" x="358.032" y="-322.739" font-family="Times,serif" font-size="14.00">create</text>
<text text-anchor="start" x="358.032" y="-307.739" font-family="Times,serif" font-size="14.00">index</text>
<text text-anchor="start" x="358.032" y="-292.739" font-family="Times,serif" font-size="14.00">new</text>
<text text-anchor="start" x="358.032" y="-277.739" font-family="Times,serif" font-size="14.00">show</text>
<polyline fill="none" stroke="black" points="350.032,-269.939 466.032,-269.939 "/>
<polyline fill="none" stroke="black" points="350.032,-245.939 466.032,-245.939 "/>
<text text-anchor="start" x="358.032" y="-230.739" font-family="Times,serif" font-size="14.00">_layout</text>
<text text-anchor="start" x="358.032" y="-215.739" font-family="Times,serif" font-size="14.00">quiz_params</text>
<text text-anchor="start" x="358.032" y="-200.739" font-family="Times,serif" font-size="14.00">set_course</text>
</g>
<!-- ApplicationController&#45;&gt;QuizzesController -->
<g id="edge10" class="edge"><title>ApplicationController&#45;&gt;QuizzesController</title>
<path fill="none" stroke="black" d="M332.331,-402.502C340.075,-389.657 348.722,-375.313 357.326,-361.042"/>
</g>
<!-- AssignmentsController -->
<g id="node13" class="node"><title>AssignmentsController</title>
<path fill="none" stroke="black" d="M33.8048,-392.247C33.8048,-392.247 152.805,-392.247 152.805,-392.247 158.805,-392.247 164.805,-398.247 164.805,-404.247 164.805,-404.247 164.805,-548.247 164.805,-548.247 164.805,-554.247 158.805,-560.247 152.805,-560.247 152.805,-560.247 33.8048,-560.247 33.8048,-560.247 27.8048,-560.247 21.8048,-554.247 21.8048,-548.247 21.8048,-548.247 21.8048,-404.247 21.8048,-404.247 21.8048,-398.247 27.8048,-392.247 33.8048,-392.247"/>
<text text-anchor="middle" x="93.3048" y="-545.047" font-family="Times,serif" font-size="14.00">AssignmentsController</text>
<polyline fill="none" stroke="black" points="21.8048,-537.247 164.805,-537.247 "/>
<text text-anchor="start" x="29.8048" y="-522.047" font-family="Times,serif" font-size="14.00">create</text>
<text text-anchor="start" x="29.8048" y="-507.047" font-family="Times,serif" font-size="14.00">index</text>
<text text-anchor="start" x="29.8048" y="-492.047" font-family="Times,serif" font-size="14.00">new</text>
<text text-anchor="start" x="29.8048" y="-477.047" font-family="Times,serif" font-size="14.00">show</text>
<polyline fill="none" stroke="black" points="21.8048,-469.247 164.805,-469.247 "/>
<polyline fill="none" stroke="black" points="21.8048,-445.247 164.805,-445.247 "/>
<text text-anchor="start" x="29.8048" y="-430.047" font-family="Times,serif" font-size="14.00">_layout</text>
<text text-anchor="start" x="29.8048" y="-415.047" font-family="Times,serif" font-size="14.00">assignment_params</text>
<text text-anchor="start" x="29.8048" y="-400.047" font-family="Times,serif" font-size="14.00">set_course</text>
</g>
<!-- ApplicationController&#45;&gt;AssignmentsController -->
<g id="edge11" class="edge"><title>ApplicationController&#45;&gt;AssignmentsController</title>
<path fill="none" stroke="black" d="M236.05,-457.868C213.3,-460.797 187.895,-464.068 164.895,-467.03"/>
</g>
<!-- SessionsController -->
<g id="node14" class="node"><title>SessionsController</title>
<path fill="none" stroke="black" d="M534.31,-206.664C534.31,-206.664 629.31,-206.664 629.31,-206.664 635.31,-206.664 641.31,-212.664 641.31,-218.664 641.31,-218.664 641.31,-332.664 641.31,-332.664 641.31,-338.664 635.31,-344.664 629.31,-344.664 629.31,-344.664 534.31,-344.664 534.31,-344.664 528.31,-344.664 522.31,-338.664 522.31,-332.664 522.31,-332.664 522.31,-218.664 522.31,-218.664 522.31,-212.664 528.31,-206.664 534.31,-206.664"/>
<text text-anchor="middle" x="581.81" y="-329.464" font-family="Times,serif" font-size="14.00">SessionsController</text>
<polyline fill="none" stroke="black" points="522.31,-321.664 641.31,-321.664 "/>
<text text-anchor="start" x="530.31" y="-306.464" font-family="Times,serif" font-size="14.00">bitbucket</text>
<text text-anchor="start" x="530.31" y="-291.464" font-family="Times,serif" font-size="14.00">destroy</text>
<text text-anchor="start" x="530.31" y="-276.464" font-family="Times,serif" font-size="14.00">failure</text>
<text text-anchor="start" x="530.31" y="-261.464" font-family="Times,serif" font-size="14.00">github</text>
<polyline fill="none" stroke="black" points="522.31,-253.664 641.31,-253.664 "/>
<polyline fill="none" stroke="black" points="522.31,-229.664 641.31,-229.664 "/>
<text text-anchor="start" x="530.31" y="-214.464" font-family="Times,serif" font-size="14.00">_layout</text>
</g>
<!-- ApplicationController&#45;&gt;SessionsController -->
<g id="edge12" class="edge"><title>ApplicationController&#45;&gt;SessionsController</title>
<path fill="none" stroke="black" d="M372.496,-417.594C402.861,-402.665 438.597,-383.808 469.232,-364.139 487.012,-352.723 505.396,-339.134 522.023,-326.073"/>
</g>
<!-- AdminController -->
<g id="node15" class="node"><title>AdminController</title>
<path fill="none" stroke="black" d="M687.261,-336.087C687.261,-336.087 791.261,-336.087 791.261,-336.087 797.261,-336.087 803.261,-342.087 803.261,-348.087 803.261,-348.087 803.261,-417.087 803.261,-417.087 803.261,-423.087 797.261,-429.087 791.261,-429.087 791.261,-429.087 687.261,-429.087 687.261,-429.087 681.261,-429.087 675.261,-423.087 675.261,-417.087 675.261,-417.087 675.261,-348.087 675.261,-348.087 675.261,-342.087 681.261,-336.087 687.261,-336.087"/>
<text text-anchor="middle" x="739.261" y="-413.887" font-family="Times,serif" font-size="14.00">AdminController</text>
<polyline fill="none" stroke="black" points="675.261,-406.087 803.261,-406.087 "/>
<text text-anchor="start" x="683.261" y="-390.887" font-family="Times,serif" font-size="14.00">authenticate_admin!</text>
<polyline fill="none" stroke="black" points="675.261,-383.087 803.261,-383.087 "/>
<polyline fill="none" stroke="black" points="675.261,-359.087 803.261,-359.087 "/>
<text text-anchor="start" x="683.261" y="-343.887" font-family="Times,serif" font-size="14.00">_layout</text>
</g>
<!-- ApplicationController&#45;&gt;AdminController -->
<g id="edge13" class="edge"><title>ApplicationController&#45;&gt;AdminController</title>
<path fill="none" stroke="black" d="M372.461,-429.305C393.303,-423.826 416.386,-418.321 437.84,-414.427 518.998,-399.696 613.777,-391.068 675.069,-386.591"/>
</g>
<!-- AssignmentSubmissionsController -->
<g id="node16" class="node"><title>AssignmentSubmissionsController</title>
<path fill="none" stroke="black" d="M425.905,-554.162C425.905,-554.162 607.905,-554.162 607.905,-554.162 613.905,-554.162 619.905,-560.162 619.905,-566.162 619.905,-566.162 619.905,-740.162 619.905,-740.162 619.905,-746.162 613.905,-752.162 607.905,-752.162 607.905,-752.162 425.905,-752.162 425.905,-752.162 419.905,-752.162 413.905,-746.162 413.905,-740.162 413.905,-740.162 413.905,-566.162 413.905,-566.162 413.905,-560.162 419.905,-554.162 425.905,-554.162"/>
<text text-anchor="middle" x="516.905" y="-736.962" font-family="Times,serif" font-size="14.00">AssignmentSubmissionsController</text>
<polyline fill="none" stroke="black" points="413.905,-729.162 619.905,-729.162 "/>
<text text-anchor="start" x="421.905" y="-713.962" font-family="Times,serif" font-size="14.00">create</text>
<text text-anchor="start" x="421.905" y="-698.962" font-family="Times,serif" font-size="14.00">index</text>
<text text-anchor="start" x="421.905" y="-683.962" font-family="Times,serif" font-size="14.00">new</text>
<text text-anchor="start" x="421.905" y="-668.962" font-family="Times,serif" font-size="14.00">show</text>
<polyline fill="none" stroke="black" points="413.905,-661.162 619.905,-661.162 "/>
<polyline fill="none" stroke="black" points="413.905,-637.162 619.905,-637.162 "/>
<text text-anchor="start" x="421.905" y="-621.962" font-family="Times,serif" font-size="14.00">_layout</text>
<text text-anchor="start" x="421.905" y="-606.962" font-family="Times,serif" font-size="14.00">assignment_submission_params</text>
<text text-anchor="start" x="421.905" y="-591.962" font-family="Times,serif" font-size="14.00">set_assignment</text>
<text text-anchor="start" x="421.905" y="-576.962" font-family="Times,serif" font-size="14.00">set_assignment_submission</text>
<text text-anchor="start" x="421.905" y="-561.962" font-family="Times,serif" font-size="14.00">set_course</text>
</g>
<!-- ApplicationController&#45;&gt;AssignmentSubmissionsController -->
<g id="edge14" class="edge"><title>ApplicationController&#45;&gt;AssignmentSubmissionsController</title>
<path fill="none" stroke="black" d="M352.767,-495.651C370.91,-513.061 392.279,-533.568 413.493,-553.925"/>
</g>
<!-- CourseSignupsController -->
<g id="node17" class="node"><title>CourseSignupsController</title>
<path fill="none" stroke="black" d="M668.267,-61.3104C668.267,-61.3104 798.267,-61.3104 798.267,-61.3104 804.267,-61.3104 810.267,-67.3104 810.267,-73.3104 810.267,-73.3104 810.267,-157.31 810.267,-157.31 810.267,-163.31 804.267,-169.31 798.267,-169.31 798.267,-169.31 668.267,-169.31 668.267,-169.31 662.267,-169.31 656.267,-163.31 656.267,-157.31 656.267,-157.31 656.267,-73.3104 656.267,-73.3104 656.267,-67.3104 662.267,-61.3104 668.267,-61.3104"/>
<text text-anchor="middle" x="733.267" y="-154.11" font-family="Times,serif" font-size="14.00">CourseSignupsController</text>
<polyline fill="none" stroke="black" points="656.267,-146.31 810.267,-146.31 "/>
<text text-anchor="start" x="664.267" y="-131.11" font-family="Times,serif" font-size="14.00">create</text>
<text text-anchor="start" x="664.267" y="-116.11" font-family="Times,serif" font-size="14.00">destroy</text>
<polyline fill="none" stroke="black" points="656.267,-108.31 810.267,-108.31 "/>
<polyline fill="none" stroke="black" points="656.267,-84.3104 810.267,-84.3104 "/>
<text text-anchor="start" x="664.267" y="-69.1104" font-family="Times,serif" font-size="14.00">_layout</text>
</g>
<!-- ApplicationController&#45;&gt;CourseSignupsController -->
<g id="edge15" class="edge"><title>ApplicationController&#45;&gt;CourseSignupsController</title>
<path fill="none" stroke="black" d="M372.593,-428.046C405.944,-414.612 444.173,-394.001 469.232,-364.139 517.296,-306.861 468.655,-258.648 519.11,-203.464 554.854,-164.369 610.529,-142.166 656.153,-129.822"/>
</g>
<!-- Admin::UsersController -->
<g id="node9" class="node"><title>Admin::UsersController</title>
<path fill="none" stroke="black" d="M663.998,-553.491C663.998,-553.491 788.998,-553.491 788.998,-553.491 794.998,-553.491 800.998,-559.491 800.998,-565.491 800.998,-565.491 800.998,-679.491 800.998,-679.491 800.998,-685.491 794.998,-691.491 788.998,-691.491 788.998,-691.491 663.998,-691.491 663.998,-691.491 657.998,-691.491 651.998,-685.491 651.998,-679.491 651.998,-679.491 651.998,-565.491 651.998,-565.491 651.998,-559.491 657.998,-553.491 663.998,-553.491"/>
<text text-anchor="middle" x="726.498" y="-676.291" font-family="Times,serif" font-size="14.00">Admin::UsersController</text>
<polyline fill="none" stroke="black" points="651.998,-668.491 800.998,-668.491 "/>
<text text-anchor="start" x="659.998" y="-653.291" font-family="Times,serif" font-size="14.00">edit</text>
<text text-anchor="start" x="659.998" y="-638.291" font-family="Times,serif" font-size="14.00">index</text>
<text text-anchor="start" x="659.998" y="-623.291" font-family="Times,serif" font-size="14.00">update</text>
<polyline fill="none" stroke="black" points="651.998,-615.491 800.998,-615.491 "/>
<polyline fill="none" stroke="black" points="651.998,-591.491 800.998,-591.491 "/>
<text text-anchor="start" x="659.998" y="-576.291" font-family="Times,serif" font-size="14.00">_layout</text>
<text text-anchor="start" x="659.998" y="-561.291" font-family="Times,serif" font-size="14.00">user_params</text>
</g>
<!-- AdminController&#45;&gt;Admin::UsersController -->
<g id="edge7" class="edge"><title>AdminController&#45;&gt;Admin::UsersController</title>
<path fill="none" stroke="black" d="M736.785,-429.127C734.907,-464.419 732.297,-513.486 730.175,-553.361"/>
</g>
</g>
</svg>
