<?xml version="1.0" encoding="UTF-8" standalone="no"?>
<!DOCTYPE svg PUBLIC "-//W3C//DTD SVG 1.1//EN"
 "http://www.w3.org/Graphics/SVG/1.1/DTD/svg11.dtd">
<!-- Generated by graphviz version 2.36.0 (20140111.2315)
 -->
<!-- Title: controllers_diagram Pages: 1 -->
<svg width="1774pt" height="886pt"
 viewBox="0.00 0.00 1774.19 885.75" xmlns="http://www.w3.org/2000/svg" xmlns:xlink="http://www.w3.org/1999/xlink">
<g id="graph0" class="graph" transform="scale(1 1) rotate(0) translate(4 881.75)">
<title>controllers_diagram</title>
<polygon fill="white" stroke="none" points="-4,4 -4,-881.75 1770.19,-881.75 1770.19,4 -4,4"/>
<!-- _diagram_info -->
<g id="node1" class="node"><title>_diagram_info</title>
<text text-anchor="start" x="928" y="-63.6" font-family="Times,serif" font-size="13.00">Controllers diagram</text>
<text text-anchor="start" x="928" y="-49.6" font-family="Times,serif" font-size="13.00">Date: Jun 12 2014 &#45; 12:12</text>
<text text-anchor="start" x="928" y="-35.6" font-family="Times,serif" font-size="13.00">Migration version: 20140607155839</text>
<text text-anchor="start" x="928" y="-21.6" font-family="Times,serif" font-size="13.00">Generated by RailRoady 1.1.1</text>
<text text-anchor="start" x="928" y="-7.6" font-family="Times,serif" font-size="13.00">http://railroady.prestonlee.com</text>
</g>
<!-- SearchesController -->
<g id="node2" class="node"><title>SearchesController</title>
<ellipse fill="none" stroke="black" cx="77.9931" cy="-475.498" rx="77.9862" ry="18"/>
<text text-anchor="middle" x="77.9931" y="-471.798" font-family="Times,serif" font-size="14.00">SearchesController</text>
</g>
<!-- User::CoursesController -->
<g id="node3" class="node"><title>User::CoursesController</title>
<ellipse fill="none" stroke="black" cx="1007.19" cy="-562.059" rx="96.6831" ry="18"/>
<text text-anchor="middle" x="1007.19" y="-558.359" font-family="Times,serif" font-size="14.00">User::CoursesController</text>
</g>
<!-- UsersController -->
<g id="node4" class="node"><title>UsersController</title>
<ellipse fill="none" stroke="black" cx="664.947" cy="-110" rx="66.8882" ry="18"/>
<text text-anchor="middle" x="664.947" y="-106.3" font-family="Times,serif" font-size="14.00">UsersController</text>
</g>
<!-- QuizSubmissionsController -->
<g id="node5" class="node"><title>QuizSubmissionsController</title>
<ellipse fill="none" stroke="black" cx="749.171" cy="-856.486" rx="108.581" ry="18"/>
<text text-anchor="middle" x="749.171" y="-852.786" font-family="Times,serif" font-size="14.00">QuizSubmissionsController</text>
</g>
<!-- ApplicationController -->
<g id="node6" class="node"><title>ApplicationController</title>
<ellipse fill="none" stroke="black" cx="887.519" cy="-319.358" rx="88.2844" ry="18"/>
<text text-anchor="middle" x="887.519" y="-315.658" font-family="Times,serif" font-size="14.00">ApplicationController</text>
</g>
<!-- ApplicationController&#45;&gt;SearchesController -->
<g id="edge1" class="edge"><title>ApplicationController&#45;&gt;SearchesController</title>
<path fill="none" stroke="black" d="M811.071,-328.53C719.947,-339.986 563.268,-361.337 430.201,-387.798 321.271,-409.46 195.386,-442.864 127.525,-461.574"/>
</g>
<!-- ApplicationController&#45;&gt;User::CoursesController -->
<g id="edge2" class="edge"><title>ApplicationController&#45;&gt;User::CoursesController</title>
<path fill="none" stroke="black" d="M896.514,-337.6C918.746,-382.688 976.087,-498.974 998.257,-543.937"/>
</g>
<!-- ApplicationController&#45;&gt;UsersController -->
<g id="edge3" class="edge"><title>ApplicationController&#45;&gt;UsersController</title>
<path fill="none" stroke="black" d="M868.542,-301.508C826.387,-261.855 725.377,-166.843 683.561,-127.509"/>
</g>
<!-- ApplicationController&#45;&gt;QuizSubmissionsController -->
<g id="edge4" class="edge"><title>ApplicationController&#45;&gt;QuizSubmissionsController</title>
<path fill="none" stroke="black" d="M882.836,-337.537C861.667,-419.726 775.019,-756.131 753.852,-838.312"/>
</g>
<!-- LandingController -->
<g id="node7" class="node"><title>LandingController</title>
<ellipse fill="none" stroke="black" cx="481.648" cy="-800.422" rx="76.0865" ry="18"/>
<text text-anchor="middle" x="481.648" y="-796.722" font-family="Times,serif" font-size="14.00">LandingController</text>
</g>
<!-- ApplicationController&#45;&gt;LandingController -->
<g id="edge5" class="edge"><title>ApplicationController&#45;&gt;LandingController</title>
<path fill="none" stroke="black" d="M865.551,-337.03C821.057,-373.452 718.395,-460.731 646.245,-547.231 578.24,-628.761 514.832,-739.731 491.3,-782.552"/>
</g>
<!-- LessonsController -->
<g id="node8" class="node"><title>LessonsController</title>
<ellipse fill="none" stroke="black" cx="145.778" cy="-132.694" rx="75.2868" ry="18"/>
<text text-anchor="middle" x="145.778" y="-128.994" font-family="Times,serif" font-size="14.00">LessonsController</text>
</g>
<!-- ApplicationController&#45;&gt;LessonsController -->
<g id="edge6" class="edge"><title>ApplicationController&#45;&gt;LessonsController</title>
<path fill="none" stroke="black" d="M831.767,-305.327C692.79,-270.353 332.479,-179.678 197.684,-145.757"/>
</g>
<!-- CoursesController -->
<g id="node10" class="node"><title>CoursesController</title>
<ellipse fill="none" stroke="black" cx="484.411" cy="-401.717" rx="75.2868" ry="18"/>
<text text-anchor="middle" x="484.411" y="-398.017" font-family="Times,serif" font-size="14.00">CoursesController</text>
</g>
<!-- ApplicationController&#45;&gt;CoursesController -->
<g id="edge8" class="edge"><title>ApplicationController&#45;&gt;CoursesController</title>
<path fill="none" stroke="black" d="M824.975,-332.136C747.575,-347.949 616.849,-374.658 541.873,-389.976"/>
</g>
<!-- CourseTeachersController -->
<g id="node11" class="node"><title>CourseTeachersController</title>
<ellipse fill="none" stroke="black" cx="1136.19" cy="-120.457" rx="103.182" ry="18"/>
<text text-anchor="middle" x="1136.19" y="-116.757" font-family="Times,serif" font-size="14.00">CourseTeachersController</text>
</g>
<!-- ApplicationController&#45;&gt;CourseTeachersController -->
<g id="edge9" class="edge"><title>ApplicationController&#45;&gt;CourseTeachersController</title>
<path fill="none" stroke="black" d="M909.586,-301.707C956.776,-263.962 1067.03,-175.778 1114.17,-138.069"/>
</g>
<!-- QuizzesController -->
<g id="node12" class="node"><title>QuizzesController</title>
<ellipse fill="none" stroke="black" cx="723.238" cy="-547.293" rx="75.2868" ry="18"/>
<text text-anchor="middle" x="723.238" y="-543.593" font-family="Times,serif" font-size="14.00">QuizzesController</text>
</g>
<!-- ApplicationController&#45;&gt;QuizzesController -->
<g id="edge10" class="edge"><title>ApplicationController&#45;&gt;QuizzesController</title>
<path fill="none" stroke="black" d="M874.628,-337.243C843.918,-379.852 766.718,-486.965 736.069,-529.49"/>
</g>
<!-- AssignmentsController -->
<g id="node13" class="node"><title>AssignmentsController</title>
<ellipse fill="none" stroke="black" cx="97.7927" cy="-834.443" rx="92.8835" ry="18"/>
<text text-anchor="middle" x="97.7927" y="-830.743" font-family="Times,serif" font-size="14.00">AssignmentsController</text>
</g>
<!-- ApplicationController&#45;&gt;AssignmentsController -->
<g id="edge11" class="edge"><title>ApplicationController&#45;&gt;AssignmentsController</title>
<path fill="none" stroke="black" d="M860.79,-336.791C739.95,-415.607 245.341,-738.207 124.514,-817.015"/>
</g>
<!-- SessionsController -->
<g id="node14" class="node"><title>SessionsController</title>
<ellipse fill="none" stroke="black" cx="1286.74" cy="-451.997" rx="77.1866" ry="18"/>
<text text-anchor="middle" x="1286.74" y="-448.297" font-family="Times,serif" font-size="14.00">SessionsController</text>
</g>
<!-- ApplicationController&#45;&gt;SessionsController -->
<g id="edge12" class="edge"><title>ApplicationController&#45;&gt;SessionsController</title>
<path fill="none" stroke="black" d="M934.096,-334.833C1011.64,-360.596 1166.18,-411.943 1242.29,-437.229"/>
</g>
<!-- AdminController -->
<g id="node15" class="node"><title>AdminController</title>
<ellipse fill="none" stroke="black" cx="1283.61" cy="-833.735" rx="71.4873" ry="18"/>
<text text-anchor="middle" x="1283.61" y="-830.035" font-family="Times,serif" font-size="14.00">AdminController</text>
</g>
<!-- ApplicationController&#45;&gt;AdminController -->
<g id="edge13" class="edge"><title>ApplicationController&#45;&gt;AdminController</title>
<path fill="none" stroke="black" d="M905.206,-337.103C943.684,-376.11 1037.04,-472.951 1105.63,-562.062 1175.62,-652.987 1246.8,-771.026 1273.05,-815.616"/>
</g>
<!-- AssignmentSubmissionsController -->
<g id="node16" class="node"><title>AssignmentSubmissionsController</title>
<ellipse fill="none" stroke="black" cx="997.356" cy="-859.75" rx="133.776" ry="18"/>
<text text-anchor="middle" x="997.356" y="-856.05" font-family="Times,serif" font-size="14.00">AssignmentSubmissionsController</text>
</g>
<!-- ApplicationController&#45;&gt;AssignmentSubmissionsController -->
<g id="edge14" class="edge"><title>ApplicationController&#45;&gt;AssignmentSubmissionsController</title>
<path fill="none" stroke="black" d="M887.857,-337.492C888.886,-378.077 892.959,-479.167 908.752,-562.057 929.391,-670.382 973.597,-795.606 990.547,-841.606"/>
</g>
<!-- CourseSignupsController -->
<g id="node17" class="node"><title>CourseSignupsController</title>
<ellipse fill="none" stroke="black" cx="1635.62" cy="-208.378" rx="100.182" ry="18"/>
<text text-anchor="middle" x="1635.62" y="-204.678" font-family="Times,serif" font-size="14.00">CourseSignupsController</text>
</g>
<!-- ApplicationController&#45;&gt;CourseSignupsController -->
<g id="edge15" class="edge"><title>ApplicationController&#45;&gt;CourseSignupsController</title>
<path fill="none" stroke="black" d="M959.25,-308.716C1100.32,-287.789 1412.76,-241.44 1558.26,-219.855"/>
</g>
<!-- Admin::UsersController -->
<g id="node9" class="node"><title>Admin::UsersController</title>
<ellipse fill="none" stroke="black" cx="1669.35" cy="-742.634" rx="96.6831" ry="18"/>
<text text-anchor="middle" x="1669.35" y="-738.934" font-family="Times,serif" font-size="14.00">Admin::UsersController</text>
</g>
<!-- AdminController&#45;&gt;Admin::UsersController -->
<g id="edge7" class="edge"><title>AdminController&#45;&gt;Admin::UsersController</title>
<path fill="none" stroke="black" d="M1336.03,-821.354C1407.3,-804.521 1534.47,-774.489 1609.43,-756.785"/>
</g>
</g>
</svg>
