<?xml version="1.0" encoding="UTF-8" standalone="no"?>
<!DOCTYPE svg PUBLIC "-//W3C//DTD SVG 1.1//EN"
 "http://www.w3.org/Graphics/SVG/1.1/DTD/svg11.dtd">
<!-- Generated by graphviz version 2.36.0 (20140111.2315)
 -->
<!-- Title: models_diagram Pages: 1 -->
<svg width="1917pt" height="1216pt"
 viewBox="0.00 0.00 1917.00 1216.00" xmlns="http://www.w3.org/2000/svg" xmlns:xlink="http://www.w3.org/1999/xlink">
<g id="graph0" class="graph" transform="scale(1 1) rotate(0) translate(4 1212)">
<title>models_diagram</title>
<polygon fill="white" stroke="none" points="-4,4 -4,-1212 1913,-1212 1913,4 -4,4"/>
<!-- _diagram_info -->
<g id="node1" class="node"><title>_diagram_info</title>
<text text-anchor="start" x="101" y="-1193.6" font-family="Times,serif" font-size="13.00">Models diagram</text>
<text text-anchor="start" x="101" y="-1179.6" font-family="Times,serif" font-size="13.00">Date: Jun 12 2014 &#45; 12:12</text>
<text text-anchor="start" x="101" y="-1165.6" font-family="Times,serif" font-size="13.00">Migration version: 20140607155839</text>
<text text-anchor="start" x="101" y="-1151.6" font-family="Times,serif" font-size="13.00">Generated by RailRoady 1.1.1</text>
<text text-anchor="start" x="101" y="-1137.6" font-family="Times,serif" font-size="13.00">http://railroady.prestonlee.com</text>
</g>
<!-- QuizSubmission -->
<g id="node2" class="node"><title>QuizSubmission</title>
<path fill="none" stroke="black" d="M11.5,-183.5C11.5,-183.5 118.5,-183.5 118.5,-183.5 124.5,-183.5 130.5,-189.5 130.5,-195.5 130.5,-195.5 130.5,-292.5 130.5,-292.5 130.5,-298.5 124.5,-304.5 118.5,-304.5 118.5,-304.5 11.5,-304.5 11.5,-304.5 5.5,-304.5 -0.5,-298.5 -0.5,-292.5 -0.5,-292.5 -0.5,-195.5 -0.5,-195.5 -0.5,-189.5 5.5,-183.5 11.5,-183.5"/>
<text text-anchor="middle" x="65" y="-289.3" font-family="Times,serif" font-size="14.00">QuizSubmission</text>
<polyline fill="none" stroke="black" points="-0.5,-281.5 130.5,-281.5 "/>
<text text-anchor="start" x="7.5" y="-266.3" font-family="Times,serif" font-size="14.00">id :integer</text>
<text text-anchor="start" x="7.5" y="-251.3" font-family="Times,serif" font-size="14.00">score :integer</text>
<text text-anchor="start" x="7.5" y="-236.3" font-family="Times,serif" font-size="14.00">created_at :datetime</text>
<text text-anchor="start" x="7.5" y="-221.3" font-family="Times,serif" font-size="14.00">updated_at :datetime</text>
<text text-anchor="start" x="7.5" y="-206.3" font-family="Times,serif" font-size="14.00">quiz_id :integer</text>
<text text-anchor="start" x="7.5" y="-191.3" font-family="Times,serif" font-size="14.00">user_id :integer</text>
</g>
<!-- AssignmentChecker -->
<g id="node3" class="node"><title>AssignmentChecker</title>
<polygon fill="none" stroke="black" points="1408.5,-955 1408.5,-1001 1535.5,-1001 1535.5,-955 1408.5,-955"/>
<text text-anchor="middle" x="1472" y="-985.8" font-family="Times,serif" font-size="14.00">AssignmentChecker</text>
<polyline fill="none" stroke="black" points="1408.5,-978 1535.5,-978 "/>
<text text-anchor="middle" x="1472" y="-962.8" font-family="Times,serif" font-size="14.00"> </text>
</g>
<!-- User -->
<g id="node4" class="node"><title>User</title>
<path fill="none" stroke="black" d="M618.5,-865C618.5,-865 729.5,-865 729.5,-865 735.5,-865 741.5,-871 741.5,-877 741.5,-877 741.5,-1079 741.5,-1079 741.5,-1085 735.5,-1091 729.5,-1091 729.5,-1091 618.5,-1091 618.5,-1091 612.5,-1091 606.5,-1085 606.5,-1079 606.5,-1079 606.5,-877 606.5,-877 606.5,-871 612.5,-865 618.5,-865"/>
<text text-anchor="middle" x="674" y="-1075.8" font-family="Times,serif" font-size="14.00">User</text>
<polyline fill="none" stroke="black" points="606.5,-1068 741.5,-1068 "/>
<text text-anchor="start" x="614.5" y="-1052.8" font-family="Times,serif" font-size="14.00">id :integer</text>
<text text-anchor="start" x="614.5" y="-1037.8" font-family="Times,serif" font-size="14.00">login :string</text>
<text text-anchor="start" x="614.5" y="-1022.8" font-family="Times,serif" font-size="14.00">name :string</text>
<text text-anchor="start" x="614.5" y="-1007.8" font-family="Times,serif" font-size="14.00">avatar_url :string</text>
<text text-anchor="start" x="614.5" y="-992.8" font-family="Times,serif" font-size="14.00">created_at :datetime</text>
<text text-anchor="start" x="614.5" y="-977.8" font-family="Times,serif" font-size="14.00">updated_at :datetime</text>
<text text-anchor="start" x="614.5" y="-962.8" font-family="Times,serif" font-size="14.00">uid :string</text>
<text text-anchor="start" x="614.5" y="-947.8" font-family="Times,serif" font-size="14.00">provider :string</text>
<text text-anchor="start" x="614.5" y="-932.8" font-family="Times,serif" font-size="14.00">description :string</text>
<text text-anchor="start" x="614.5" y="-917.8" font-family="Times,serif" font-size="14.00">website :string</text>
<text text-anchor="start" x="614.5" y="-902.8" font-family="Times,serif" font-size="14.00">location :string</text>
<text text-anchor="start" x="614.5" y="-887.8" font-family="Times,serif" font-size="14.00">admin :boolean</text>
<text text-anchor="start" x="614.5" y="-872.8" font-family="Times,serif" font-size="14.00">courses_limit :integer</text>
</g>
<!-- Lesson -->
<g id="node5" class="node"><title>Lesson</title>
<path fill="none" stroke="black" d="M346.5,-381.5C346.5,-381.5 471.5,-381.5 471.5,-381.5 477.5,-381.5 483.5,-387.5 483.5,-393.5 483.5,-393.5 483.5,-550.5 483.5,-550.5 483.5,-556.5 477.5,-562.5 471.5,-562.5 471.5,-562.5 346.5,-562.5 346.5,-562.5 340.5,-562.5 334.5,-556.5 334.5,-550.5 334.5,-550.5 334.5,-393.5 334.5,-393.5 334.5,-387.5 340.5,-381.5 346.5,-381.5"/>
<text text-anchor="middle" x="409" y="-547.3" font-family="Times,serif" font-size="14.00">Lesson</text>
<polyline fill="none" stroke="black" points="334.5,-539.5 483.5,-539.5 "/>
<text text-anchor="start" x="342.5" y="-524.3" font-family="Times,serif" font-size="14.00">id :integer</text>
<text text-anchor="start" x="342.5" y="-509.3" font-family="Times,serif" font-size="14.00">course_id :integer</text>
<text text-anchor="start" x="342.5" y="-494.3" font-family="Times,serif" font-size="14.00">name :string</text>
<text text-anchor="start" x="342.5" y="-479.3" font-family="Times,serif" font-size="14.00">description :text</text>
<text text-anchor="start" x="342.5" y="-464.3" font-family="Times,serif" font-size="14.00">screenshot_url :string</text>
<text text-anchor="start" x="342.5" y="-449.3" font-family="Times,serif" font-size="14.00">video_url :string</text>
<text text-anchor="start" x="342.5" y="-434.3" font-family="Times,serif" font-size="14.00">created_at :datetime</text>
<text text-anchor="start" x="342.5" y="-419.3" font-family="Times,serif" font-size="14.00">updated_at :datetime</text>
<text text-anchor="start" x="342.5" y="-404.3" font-family="Times,serif" font-size="14.00">short_description :string</text>
<text text-anchor="start" x="342.5" y="-389.3" font-family="Times,serif" font-size="14.00">user_id :integer</text>
</g>
<!-- User&#45;&gt;Lesson -->
<g id="edge7" class="edge"><title>User&#45;&gt;Lesson</title>
<path fill="none" stroke="#3732c7" d="M598.996,-948.928C541.082,-922.923 464.674,-878.189 427,-812 385.874,-739.746 384.606,-644.19 391.757,-572.949"/>
<ellipse fill="none" stroke="#3732c7" cx="602.662" cy="-950.547" rx="4.00002" ry="4.00002"/>
<polygon fill="#3732c7" stroke="#3732c7" points="391.798,-572.563 397.343,-563.102 392.334,-567.592 392.869,-562.621 392.869,-562.621 392.869,-562.621 392.334,-567.592 388.395,-562.139 391.798,-572.563 391.798,-572.563"/>
</g>
<!-- Assignment -->
<g id="node6" class="node"><title>Assignment</title>
<path fill="none" stroke="black" d="M1066.5,-366.5C1066.5,-366.5 1191.5,-366.5 1191.5,-366.5 1197.5,-366.5 1203.5,-372.5 1203.5,-378.5 1203.5,-378.5 1203.5,-565.5 1203.5,-565.5 1203.5,-571.5 1197.5,-577.5 1191.5,-577.5 1191.5,-577.5 1066.5,-577.5 1066.5,-577.5 1060.5,-577.5 1054.5,-571.5 1054.5,-565.5 1054.5,-565.5 1054.5,-378.5 1054.5,-378.5 1054.5,-372.5 1060.5,-366.5 1066.5,-366.5"/>
<text text-anchor="middle" x="1129" y="-562.3" font-family="Times,serif" font-size="14.00">Assignment</text>
<polyline fill="none" stroke="black" points="1054.5,-554.5 1203.5,-554.5 "/>
<text text-anchor="start" x="1062.5" y="-539.3" font-family="Times,serif" font-size="14.00">id :integer</text>
<text text-anchor="start" x="1062.5" y="-524.3" font-family="Times,serif" font-size="14.00">name :string</text>
<text text-anchor="start" x="1062.5" y="-509.3" font-family="Times,serif" font-size="14.00">short_description :string</text>
<text text-anchor="start" x="1062.5" y="-494.3" font-family="Times,serif" font-size="14.00">description :text</text>
<text text-anchor="start" x="1062.5" y="-479.3" font-family="Times,serif" font-size="14.00">course_id :integer</text>
<text text-anchor="start" x="1062.5" y="-464.3" font-family="Times,serif" font-size="14.00">screenshot_url :string</text>
<text text-anchor="start" x="1062.5" y="-449.3" font-family="Times,serif" font-size="14.00">code :string</text>
<text text-anchor="start" x="1062.5" y="-434.3" font-family="Times,serif" font-size="14.00">created_at :datetime</text>
<text text-anchor="start" x="1062.5" y="-419.3" font-family="Times,serif" font-size="14.00">updated_at :datetime</text>
<text text-anchor="start" x="1062.5" y="-404.3" font-family="Times,serif" font-size="14.00">language :string</text>
<text text-anchor="start" x="1062.5" y="-389.3" font-family="Times,serif" font-size="14.00">example_solution :text</text>
<text text-anchor="start" x="1062.5" y="-374.3" font-family="Times,serif" font-size="14.00">user_id :integer</text>
</g>
<!-- User&#45;&gt;Assignment -->
<g id="edge5" class="edge"><title>User&#45;&gt;Assignment</title>
<path fill="none" stroke="#1f55e0" d="M749.548,-965.315C863.314,-946.033 1070.12,-903.853 1115,-846 1145.23,-807.034 1144.46,-682.552 1138.87,-588.014"/>
<ellipse fill="none" stroke="#1f55e0" cx="745.466" cy="-966.001" rx="4.00001" ry="4.00001"/>
<polygon fill="#1f55e0" stroke="#1f55e0" points="1138.86,-587.786 1142.73,-577.528 1138.55,-582.796 1138.24,-577.805 1138.24,-577.805 1138.24,-577.805 1138.55,-582.796 1133.75,-578.082 1138.86,-587.786 1138.86,-587.786"/>
</g>
<!-- Course -->
<g id="node8" class="node"><title>Course</title>
<path fill="none" stroke="black" d="M882.5,-630.5C882.5,-630.5 1007.5,-630.5 1007.5,-630.5 1013.5,-630.5 1019.5,-636.5 1019.5,-642.5 1019.5,-642.5 1019.5,-799.5 1019.5,-799.5 1019.5,-805.5 1013.5,-811.5 1007.5,-811.5 1007.5,-811.5 882.5,-811.5 882.5,-811.5 876.5,-811.5 870.5,-805.5 870.5,-799.5 870.5,-799.5 870.5,-642.5 870.5,-642.5 870.5,-636.5 876.5,-630.5 882.5,-630.5"/>
<text text-anchor="middle" x="945" y="-796.3" font-family="Times,serif" font-size="14.00">Course</text>
<polyline fill="none" stroke="black" points="870.5,-788.5 1019.5,-788.5 "/>
<text text-anchor="start" x="878.5" y="-773.3" font-family="Times,serif" font-size="14.00">id :integer</text>
<text text-anchor="start" x="878.5" y="-758.3" font-family="Times,serif" font-size="14.00">name :string</text>
<text text-anchor="start" x="878.5" y="-743.3" font-family="Times,serif" font-size="14.00">category_id :integer</text>
<text text-anchor="start" x="878.5" y="-728.3" font-family="Times,serif" font-size="14.00">user_id :integer</text>
<text text-anchor="start" x="878.5" y="-713.3" font-family="Times,serif" font-size="14.00">description :text</text>
<text text-anchor="start" x="878.5" y="-698.3" font-family="Times,serif" font-size="14.00">screenshot_url :string</text>
<text text-anchor="start" x="878.5" y="-683.3" font-family="Times,serif" font-size="14.00">created_at :datetime</text>
<text text-anchor="start" x="878.5" y="-668.3" font-family="Times,serif" font-size="14.00">updated_at :datetime</text>
<text text-anchor="start" x="878.5" y="-653.3" font-family="Times,serif" font-size="14.00">short_description :string</text>
<text text-anchor="start" x="878.5" y="-638.3" font-family="Times,serif" font-size="14.00">url :string</text>
</g>
<!-- User&#45;&gt;Course -->
<g id="edge12" class="edge"><title>User&#45;&gt;Course</title>
<path fill="none" stroke="#320b48" d="M747.766,-912.374C771.356,-891.412 797.453,-867.911 821,-846 836.877,-831.227 840.597,-827.267 856,-812 858.341,-809.68 860.713,-807.322 863.105,-804.94"/>
<ellipse fill="none" stroke="#320b48" cx="744.497" cy="-915.275" rx="4.00002" ry="4.00002"/>
<polygon fill="#320b48" stroke="#320b48" points="863.25,-804.796 873.507,-800.916 866.789,-801.264 870.328,-797.731 870.328,-797.731 870.328,-797.731 866.789,-801.264 867.149,-794.546 863.25,-804.796 863.25,-804.796"/>
</g>
<!-- User&#45;&gt;Course -->
<g id="edge13" class="edge"><title>User&#45;&gt;Course</title>
<path fill="none" stroke="#17d35f" d="M749.964,-924.33C780.491,-901.698 815.201,-874.032 844,-846 852.635,-837.595 861.244,-828.477 869.589,-819.128"/>
<polygon fill="#17d35f" stroke="#17d35f" points="749.942,-924.346 739.22,-926.649 745.915,-927.309 741.888,-930.273 741.888,-930.273 741.888,-930.273 745.915,-927.309 744.555,-933.897 749.942,-924.346 749.942,-924.346"/>
<polygon fill="#17d35f" stroke="#17d35f" points="869.615,-819.098 879.599,-814.562 872.918,-815.344 876.22,-811.59 876.22,-811.59 876.22,-811.59 872.918,-815.344 872.842,-808.617 869.615,-819.098 869.615,-819.098"/>
<text text-anchor="middle" x="904.5" y="-834.3" font-family="Times,serif" font-size="14.00">teached_courses</text>
</g>
<!-- User&#45;&gt;Course -->
<g id="edge14" class="edge"><title>User&#45;&gt;Course</title>
<path fill="none" stroke="#553bfb" d="M751.652,-964.05C817.854,-948.463 909.062,-915.171 953,-846 957.697,-838.605 960.703,-830.436 962.435,-821.925"/>
<polygon fill="#553bfb" stroke="#553bfb" points="751.417,-964.103 740.67,-961.924 746.54,-965.208 741.664,-966.313 741.664,-966.313 741.664,-966.313 746.54,-965.208 742.658,-970.701 751.417,-964.103 751.417,-964.103"/>
<polygon fill="#553bfb" stroke="#553bfb" points="962.469,-821.697 968.363,-812.45 963.189,-816.749 963.91,-811.802 963.91,-811.802 963.91,-811.802 963.189,-816.749 959.457,-811.153 962.469,-821.697 962.469,-821.697"/>
<text text-anchor="middle" x="1002" y="-834.3" font-family="Times,serif" font-size="14.00">signup_courses</text>
</g>
<!-- CourseRole -->
<g id="node10" class="node"><title>CourseRole</title>
<path fill="none" stroke="black" d="M725.5,-411.5C725.5,-411.5 832.5,-411.5 832.5,-411.5 838.5,-411.5 844.5,-417.5 844.5,-423.5 844.5,-423.5 844.5,-520.5 844.5,-520.5 844.5,-526.5 838.5,-532.5 832.5,-532.5 832.5,-532.5 725.5,-532.5 725.5,-532.5 719.5,-532.5 713.5,-526.5 713.5,-520.5 713.5,-520.5 713.5,-423.5 713.5,-423.5 713.5,-417.5 719.5,-411.5 725.5,-411.5"/>
<text text-anchor="middle" x="779" y="-517.3" font-family="Times,serif" font-size="14.00">CourseRole</text>
<polyline fill="none" stroke="black" points="713.5,-509.5 844.5,-509.5 "/>
<text text-anchor="start" x="721.5" y="-494.3" font-family="Times,serif" font-size="14.00">id :integer</text>
<text text-anchor="start" x="721.5" y="-479.3" font-family="Times,serif" font-size="14.00">course_id :integer</text>
<text text-anchor="start" x="721.5" y="-464.3" font-family="Times,serif" font-size="14.00">created_at :datetime</text>
<text text-anchor="start" x="721.5" y="-449.3" font-family="Times,serif" font-size="14.00">updated_at :datetime</text>
<text text-anchor="start" x="721.5" y="-434.3" font-family="Times,serif" font-size="14.00">user_id :integer</text>
<text text-anchor="start" x="721.5" y="-419.3" font-family="Times,serif" font-size="14.00">name :string</text>
</g>
<!-- User&#45;&gt;CourseRole -->
<g id="edge9" class="edge"><title>User&#45;&gt;CourseRole</title>
<path fill="none" stroke="#82dda5" d="M639.652,-856.847C639.037,-853.203 638.483,-849.581 638,-846 625.152,-750.76 629.414,-724.288 648,-630 655.436,-592.275 680.032,-558.367 705.935,-531.799"/>
<ellipse fill="none" stroke="#82dda5" cx="640.384" cy="-860.918" rx="4.00001" ry="4.00001"/>
<polygon fill="#82dda5" stroke="#82dda5" points="706.176,-531.559 716.438,-527.693 709.719,-528.032 713.262,-524.504 713.262,-524.504 713.262,-524.504 709.719,-528.032 710.087,-521.315 706.176,-531.559 706.176,-531.559"/>
</g>
<!-- User&#45;&gt;CourseRole -->
<g id="edge10" class="edge"><title>User&#45;&gt;CourseRole</title>
<path fill="none" stroke="#6325ae" d="M660.462,-856.48C656.959,-788.304 659.634,-702.459 684,-630 694.445,-598.937 711.835,-567.488 728.902,-540.979"/>
<ellipse fill="none" stroke="#6325ae" cx="660.697" cy="-860.711" rx="4" ry="4"/>
<polygon fill="#6325ae" stroke="#6325ae" points="728.943,-540.917 738.187,-535.019 731.683,-536.735 734.423,-532.553 734.423,-532.553 734.423,-532.553 731.683,-536.735 730.659,-530.086 728.943,-540.917 728.943,-540.917"/>
<text text-anchor="middle" x="720.5" y="-717.3" font-family="Times,serif" font-size="14.00">student_roles</text>
</g>
<!-- User&#45;&gt;CourseRole -->
<g id="edge11" class="edge"><title>User&#45;&gt;CourseRole</title>
<path fill="none" stroke="#a21280" d="M675.295,-857.037C679.024,-847.207 684.129,-837.997 691,-830 710.815,-806.939 737.771,-835.552 757,-812 789.47,-772.229 787.95,-629.754 783.655,-542.669"/>
<ellipse fill="none" stroke="#a21280" cx="673.992" cy="-860.877" rx="4.00001" ry="4.00001"/>
<polygon fill="#a21280" stroke="#a21280" points="783.65,-542.581 787.627,-532.362 783.392,-537.588 783.133,-532.595 783.133,-532.595 783.133,-532.595 783.392,-537.588 778.639,-532.827 783.65,-542.581 783.65,-542.581"/>
<text text-anchor="middle" x="822.5" y="-717.3" font-family="Times,serif" font-size="14.00">teacher_roles</text>
</g>
<!-- AssignmentSubmission -->
<g id="node11" class="node"><title>AssignmentSubmission</title>
<path fill="none" stroke="black" d="M966,-161C966,-161 1088,-161 1088,-161 1094,-161 1100,-167 1100,-173 1100,-173 1100,-315 1100,-315 1100,-321 1094,-327 1088,-327 1088,-327 966,-327 966,-327 960,-327 954,-321 954,-315 954,-315 954,-173 954,-173 954,-167 960,-161 966,-161"/>
<text text-anchor="middle" x="1027" y="-311.8" font-family="Times,serif" font-size="14.00">AssignmentSubmission</text>
<polyline fill="none" stroke="black" points="954,-304 1100,-304 "/>
<text text-anchor="start" x="962" y="-288.8" font-family="Times,serif" font-size="14.00">id :integer</text>
<text text-anchor="start" x="962" y="-273.8" font-family="Times,serif" font-size="14.00">user_id :integer</text>
<text text-anchor="start" x="962" y="-258.8" font-family="Times,serif" font-size="14.00">assignment_id :integer</text>
<text text-anchor="start" x="962" y="-243.8" font-family="Times,serif" font-size="14.00">output :text</text>
<text text-anchor="start" x="962" y="-228.8" font-family="Times,serif" font-size="14.00">created_at :datetime</text>
<text text-anchor="start" x="962" y="-213.8" font-family="Times,serif" font-size="14.00">updated_at :datetime</text>
<text text-anchor="start" x="962" y="-198.8" font-family="Times,serif" font-size="14.00">code :text</text>
<text text-anchor="start" x="962" y="-183.8" font-family="Times,serif" font-size="14.00">pending :boolean</text>
<text text-anchor="start" x="962" y="-168.8" font-family="Times,serif" font-size="14.00">status :integer</text>
</g>
<!-- User&#45;&gt;AssignmentSubmission -->
<g id="edge8" class="edge"><title>User&#45;&gt;AssignmentSubmission</title>
<path fill="none" stroke="#c55e3d" d="M749.82,-974.842C838.111,-967.77 980.454,-941.229 1048,-846 1055.24,-835.789 1039.83,-503.32 1031.66,-337.358"/>
<ellipse fill="none" stroke="#c55e3d" cx="745.702" cy="-975.15" rx="4" ry="4"/>
<polygon fill="#c55e3d" stroke="#c55e3d" points="1031.65,-337.145 1035.65,-326.935 1031.4,-332.151 1031.15,-327.157 1031.15,-327.157 1031.15,-327.157 1031.4,-332.151 1026.66,-327.379 1031.65,-337.145 1031.65,-337.145"/>
</g>
<!-- Quiz -->
<g id="node12" class="node"><title>Quiz</title>
<path fill="none" stroke="black" d="M142.5,-389C142.5,-389 267.5,-389 267.5,-389 273.5,-389 279.5,-395 279.5,-401 279.5,-401 279.5,-543 279.5,-543 279.5,-549 273.5,-555 267.5,-555 267.5,-555 142.5,-555 142.5,-555 136.5,-555 130.5,-549 130.5,-543 130.5,-543 130.5,-401 130.5,-401 130.5,-395 136.5,-389 142.5,-389"/>
<text text-anchor="middle" x="205" y="-539.8" font-family="Times,serif" font-size="14.00">Quiz</text>
<polyline fill="none" stroke="black" points="130.5,-532 279.5,-532 "/>
<text text-anchor="start" x="138.5" y="-516.8" font-family="Times,serif" font-size="14.00">id :integer</text>
<text text-anchor="start" x="138.5" y="-501.8" font-family="Times,serif" font-size="14.00">name :string</text>
<text text-anchor="start" x="138.5" y="-486.8" font-family="Times,serif" font-size="14.00">short_description :string</text>
<text text-anchor="start" x="138.5" y="-471.8" font-family="Times,serif" font-size="14.00">description :text</text>
<text text-anchor="start" x="138.5" y="-456.8" font-family="Times,serif" font-size="14.00">course_id :integer</text>
<text text-anchor="start" x="138.5" y="-441.8" font-family="Times,serif" font-size="14.00">created_at :datetime</text>
<text text-anchor="start" x="138.5" y="-426.8" font-family="Times,serif" font-size="14.00">updated_at :datetime</text>
<text text-anchor="start" x="138.5" y="-411.8" font-family="Times,serif" font-size="14.00">user_id :integer</text>
<text text-anchor="start" x="138.5" y="-396.8" font-family="Times,serif" font-size="14.00">screenshot_url :string</text>
</g>
<!-- User&#45;&gt;Quiz -->
<g id="edge6" class="edge"><title>User&#45;&gt;Quiz</title>
<path fill="none" stroke="#3448a8" d="M598.775,-949.842C534.594,-923.339 443.647,-877.418 385,-812 319.443,-738.873 269.71,-637.586 239.309,-564.801"/>
<ellipse fill="none" stroke="#3448a8" cx="602.761" cy="-951.468" rx="4.00001" ry="4.00001"/>
<polygon fill="#3448a8" stroke="#3448a8" points="239.15,-564.417 239.49,-553.456 237.241,-559.796 235.331,-555.175 235.331,-555.175 235.331,-555.175 237.241,-559.796 231.173,-556.893 239.15,-564.417 239.15,-564.417"/>
</g>
<!-- UserRole -->
<g id="node20" class="node"><title>UserRole</title>
<ellipse fill="none" stroke="black" cx="480" cy="-721" rx="44.2946" ry="18"/>
<text text-anchor="middle" x="480" y="-717.3" font-family="Times,serif" font-size="14.00">UserRole</text>
</g>
<!-- User&#45;&gt;UserRole -->
<g id="edge3" class="edge"><title>User&#45;&gt;UserRole</title>
<path fill="none" stroke="#678cea" d="M600.759,-897.014C578.028,-870.718 553.563,-840.824 533,-812 518.203,-791.259 503.683,-766.173 493.593,-747.761"/>
<ellipse fill="none" stroke="#678cea" cx="603.567" cy="-900.247" rx="4.00002" ry="4.00002"/>
<polygon fill="#678cea" stroke="#678cea" points="493.503,-747.593 492.701,-736.657 491.123,-743.196 488.743,-738.799 488.743,-738.799 488.743,-738.799 491.123,-743.196 484.785,-740.941 493.503,-747.593 493.503,-747.593"/>
</g>
<!-- Role -->
<g id="node21" class="node"><title>Role</title>
<ellipse fill="none" stroke="black" cx="569" cy="-721" rx="26.949" ry="18"/>
<text text-anchor="middle" x="569" y="-717.3" font-family="Times,serif" font-size="14.00">Role</text>
</g>
<!-- User&#45;&gt;Role -->
<g id="edge4" class="edge"><title>User&#45;&gt;Role</title>
<path fill="none" stroke="#5bb504" d="M614.036,-855.69C612.653,-852.437 611.305,-849.203 610,-846 596.616,-813.149 584.278,-774.141 576.707,-748.769"/>
<polygon fill="#5bb504" stroke="#5bb504" points="614.048,-855.719 613.887,-866.684 616.033,-860.309 618.017,-864.898 618.017,-864.898 618.017,-864.898 616.033,-860.309 622.148,-863.112 614.048,-855.719 614.048,-855.719"/>
<polygon fill="#5bb504" stroke="#5bb504" points="576.687,-748.702 578.174,-737.837 575.273,-743.906 573.858,-739.11 573.858,-739.11 573.858,-739.11 575.273,-743.906 569.542,-740.383 576.687,-748.702 576.687,-748.702"/>
</g>
<!-- Assignment&#45;&gt;AssignmentSubmission -->
<g id="edge17" class="edge"><title>Assignment&#45;&gt;AssignmentSubmission</title>
<path fill="none" stroke="#703ce3" d="M1078.39,-358.855C1074.98,-351.317 1071.58,-343.774 1068.23,-336.361"/>
<ellipse fill="none" stroke="#703ce3" cx="1080.09" cy="-362.624" rx="4.00002" ry="4.00002"/>
<polygon fill="#703ce3" stroke="#703ce3" points="1068.14,-336.164 1068.13,-325.198 1066.09,-331.607 1064.03,-327.049 1064.03,-327.049 1064.03,-327.049 1066.09,-331.607 1059.93,-328.901 1068.14,-336.164 1068.14,-336.164"/>
</g>
<!-- Category -->
<g id="node7" class="node"><title>Category</title>
<path fill="none" stroke="black" d="M239.5,-932.5C239.5,-932.5 346.5,-932.5 346.5,-932.5 352.5,-932.5 358.5,-938.5 358.5,-944.5 358.5,-944.5 358.5,-1011.5 358.5,-1011.5 358.5,-1017.5 352.5,-1023.5 346.5,-1023.5 346.5,-1023.5 239.5,-1023.5 239.5,-1023.5 233.5,-1023.5 227.5,-1017.5 227.5,-1011.5 227.5,-1011.5 227.5,-944.5 227.5,-944.5 227.5,-938.5 233.5,-932.5 239.5,-932.5"/>
<text text-anchor="middle" x="293" y="-1008.3" font-family="Times,serif" font-size="14.00">Category</text>
<polyline fill="none" stroke="black" points="227.5,-1000.5 358.5,-1000.5 "/>
<text text-anchor="start" x="235.5" y="-985.3" font-family="Times,serif" font-size="14.00">id :integer</text>
<text text-anchor="start" x="235.5" y="-970.3" font-family="Times,serif" font-size="14.00">name :string</text>
<text text-anchor="start" x="235.5" y="-955.3" font-family="Times,serif" font-size="14.00">created_at :datetime</text>
<text text-anchor="start" x="235.5" y="-940.3" font-family="Times,serif" font-size="14.00">updated_at :datetime</text>
</g>
<!-- Course&#45;&gt;User -->
<g id="edge26" class="edge"><title>Course&#45;&gt;User</title>
<path fill="none" stroke="#3bd056" d="M861.499,-809.121C859.683,-810.131 857.85,-811.093 856,-812 796.508,-841.18 757.277,-785.7 708,-830 699.872,-837.307 693.49,-846.138 688.501,-855.801"/>
<polygon fill="#3bd056" stroke="#3bd056" points="861.888,-808.884 872.769,-807.527 866.158,-806.284 870.429,-803.683 870.429,-803.683 870.429,-803.683 866.158,-806.284 868.088,-799.84 861.888,-808.884 861.888,-808.884"/>
<polygon fill="#3bd056" stroke="#3bd056" points="688.496,-855.812 680.216,-863.002 686.399,-860.351 684.301,-864.89 684.301,-864.89 684.301,-864.89 686.399,-860.351 688.386,-866.778 688.496,-855.812 688.496,-855.812"/>
<text text-anchor="middle" x="730.5" y="-834.3" font-family="Times,serif" font-size="14.00">students</text>
</g>
<!-- Course&#45;&gt;User -->
<g id="edge27" class="edge"><title>Course&#45;&gt;User</title>
<path fill="none" stroke="#e8866c" d="M861.94,-808.55C859.977,-809.754 857.997,-810.907 856,-812 822.512,-830.34 803.578,-808.538 772,-830 764.977,-834.773 756.407,-844.359 747.288,-856.452"/>
<polygon fill="#e8866c" stroke="#e8866c" points="862.079,-808.458 872.904,-806.709 866.253,-805.706 870.427,-802.953 870.427,-802.953 870.427,-802.953 866.253,-805.706 867.949,-799.196 862.079,-808.458 862.079,-808.458"/>
<polygon fill="#e8866c" stroke="#e8866c" points="747.133,-856.665 737.596,-862.078 744.18,-860.7 741.227,-864.735 741.227,-864.735 741.227,-864.735 744.18,-860.7 744.859,-867.392 747.133,-856.665 747.133,-856.665"/>
<text text-anchor="middle" x="794.5" y="-834.3" font-family="Times,serif" font-size="14.00">teachers</text>
</g>
<!-- Course&#45;&gt;Lesson -->
<g id="edge20" class="edge"><title>Course&#45;&gt;Lesson</title>
<path fill="none" stroke="#764fac" d="M863.704,-635.007C861.16,-633.256 858.59,-631.582 856,-630 833.33,-616.15 824.183,-620.461 799,-612 693.093,-576.418 572.021,-532.803 493.241,-504.026"/>
<ellipse fill="none" stroke="#764fac" cx="867.128" cy="-637.472" rx="4.00002" ry="4.00002"/>
<polygon fill="#764fac" stroke="#764fac" points="493.239,-504.026 485.392,-496.366 488.543,-502.309 483.847,-500.592 483.847,-500.592 483.847,-500.592 488.543,-502.309 482.302,-504.819 493.239,-504.026 493.239,-504.026"/>
</g>
<!-- Course&#45;&gt;Assignment -->
<g id="edge21" class="edge"><title>Course&#45;&gt;Assignment</title>
<path fill="none" stroke="#775472" d="M1016.6,-623.883C1026.98,-609.953 1037.72,-595.535 1048.26,-581.385"/>
<ellipse fill="none" stroke="#775472" cx="1014.08" cy="-627.27" rx="4.00002" ry="4.00002"/>
<polygon fill="#775472" stroke="#775472" points="1048.46,-581.11 1058.05,-575.779 1051.45,-577.101 1054.44,-573.091 1054.44,-573.091 1054.44,-573.091 1051.45,-577.101 1050.83,-570.403 1048.46,-581.11 1048.46,-581.11"/>
</g>
<!-- Course&#45;&gt;CourseRole -->
<g id="edge23" class="edge"><title>Course&#45;&gt;CourseRole</title>
<path fill="none" stroke="#cfb3ae" d="M989.051,-622.251C988.762,-613.146 986.648,-604.251 982,-596 954.753,-547.632 899.965,-516.108 854.169,-497.095"/>
<ellipse fill="none" stroke="#cfb3ae" cx="988.951" cy="-626.295" rx="4" ry="4"/>
<polygon fill="#cfb3ae" stroke="#cfb3ae" points="854.121,-497.075 846.524,-489.167 849.483,-495.208 844.844,-493.342 844.844,-493.342 844.844,-493.342 849.483,-495.208 843.164,-497.516 854.121,-497.075 854.121,-497.075"/>
</g>
<!-- Course&#45;&gt;CourseRole -->
<g id="edge24" class="edge"><title>Course&#45;&gt;CourseRole</title>
<path fill="none" stroke="#f28799" d="M863.648,-635.423C861.116,-633.543 858.564,-631.731 856,-630 838.828,-618.409 826.459,-627.75 813,-612 796.545,-592.744 787.804,-566.78 783.243,-542.504"/>
<ellipse fill="none" stroke="#f28799" cx="867.132" cy="-638.107" rx="4.00002" ry="4.00002"/>
<polygon fill="#f28799" stroke="#f28799" points="783.234,-542.451 786.025,-531.846 782.41,-537.52 781.586,-532.588 781.586,-532.588 781.586,-532.588 782.41,-537.52 777.148,-533.33 783.234,-542.451 783.234,-542.451"/>
<text text-anchor="middle" x="849.5" y="-600.3" font-family="Times,serif" font-size="14.00">student_roles</text>
</g>
<!-- Course&#45;&gt;CourseRole -->
<g id="edge25" class="edge"><title>Course&#45;&gt;CourseRole</title>
<path fill="none" stroke="#ebb0c9" d="M902.114,-623.149C897.022,-613.781 891.622,-604.581 886,-596 873.557,-577.01 858.407,-557.844 843.467,-540.477"/>
<ellipse fill="none" stroke="#ebb0c9" cx="904.065" cy="-626.808" rx="4.00002" ry="4.00002"/>
<polygon fill="#ebb0c9" stroke="#ebb0c9" points="843.199,-540.17 840.02,-529.674 839.914,-536.4 836.628,-532.631 836.628,-532.631 836.628,-532.631 839.914,-536.4 833.236,-535.588 843.199,-540.17 843.199,-540.17"/>
<text text-anchor="middle" x="932.5" y="-600.3" font-family="Times,serif" font-size="14.00">teacher_roles</text>
</g>
<!-- Course&#45;&gt;Quiz -->
<g id="edge22" class="edge"><title>Course&#45;&gt;Quiz</title>
<path fill="none" stroke="#0c3625" d="M863.347,-633.827C860.93,-632.461 858.48,-631.181 856,-630 802.473,-604.519 379.411,-601.534 325,-578 312.222,-572.473 299.833,-565.065 288.173,-556.729"/>
<ellipse fill="none" stroke="#0c3625" cx="867.079" cy="-636.097" rx="4.00002" ry="4.00002"/>
<polygon fill="#0c3625" stroke="#0c3625" points="287.838,-556.48 282.504,-546.899 283.828,-553.494 279.817,-550.508 279.817,-550.508 279.817,-550.508 283.828,-553.494 277.13,-554.118 287.838,-556.48 287.838,-556.48"/>
</g>
<!-- Question -->
<g id="node9" class="node"><title>Question</title>
<path fill="none" stroke="black" d="M160.5,-191C160.5,-191 267.5,-191 267.5,-191 273.5,-191 279.5,-197 279.5,-203 279.5,-203 279.5,-285 279.5,-285 279.5,-291 273.5,-297 267.5,-297 267.5,-297 160.5,-297 160.5,-297 154.5,-297 148.5,-291 148.5,-285 148.5,-285 148.5,-203 148.5,-203 148.5,-197 154.5,-191 160.5,-191"/>
<text text-anchor="middle" x="214" y="-281.8" font-family="Times,serif" font-size="14.00">Question</text>
<polyline fill="none" stroke="black" points="148.5,-274 279.5,-274 "/>
<text text-anchor="start" x="156.5" y="-258.8" font-family="Times,serif" font-size="14.00">id :integer</text>
<text text-anchor="start" x="156.5" y="-243.8" font-family="Times,serif" font-size="14.00">content :string</text>
<text text-anchor="start" x="156.5" y="-228.8" font-family="Times,serif" font-size="14.00">quiz_id :integer</text>
<text text-anchor="start" x="156.5" y="-213.8" font-family="Times,serif" font-size="14.00">created_at :datetime</text>
<text text-anchor="start" x="156.5" y="-198.8" font-family="Times,serif" font-size="14.00">updated_at :datetime</text>
</g>
<!-- Answer -->
<g id="node13" class="node"><title>Answer</title>
<path fill="none" stroke="black" d="M916.5,-0.5C916.5,-0.5 1023.5,-0.5 1023.5,-0.5 1029.5,-0.5 1035.5,-6.5 1035.5,-12.5 1035.5,-12.5 1035.5,-109.5 1035.5,-109.5 1035.5,-115.5 1029.5,-121.5 1023.5,-121.5 1023.5,-121.5 916.5,-121.5 916.5,-121.5 910.5,-121.5 904.5,-115.5 904.5,-109.5 904.5,-109.5 904.5,-12.5 904.5,-12.5 904.5,-6.5 910.5,-0.5 916.5,-0.5"/>
<text text-anchor="middle" x="970" y="-106.3" font-family="Times,serif" font-size="14.00">Answer</text>
<polyline fill="none" stroke="black" points="904.5,-98.5 1035.5,-98.5 "/>
<text text-anchor="start" x="912.5" y="-83.3" font-family="Times,serif" font-size="14.00">id :integer</text>
<text text-anchor="start" x="912.5" y="-68.3" font-family="Times,serif" font-size="14.00">content :string</text>
<text text-anchor="start" x="912.5" y="-53.3" font-family="Times,serif" font-size="14.00">question_id :integer</text>
<text text-anchor="start" x="912.5" y="-38.3" font-family="Times,serif" font-size="14.00">correct :boolean</text>
<text text-anchor="start" x="912.5" y="-23.3" font-family="Times,serif" font-size="14.00">created_at :datetime</text>
<text text-anchor="start" x="912.5" y="-8.3" font-family="Times,serif" font-size="14.00">updated_at :datetime</text>
</g>
<!-- Question&#45;&gt;Answer -->
<g id="edge29" class="edge"><title>Question&#45;&gt;Answer</title>
<path fill="none" stroke="#4cf39b" d="M287.935,-225.299C432.104,-190.782 749.352,-114.827 894.647,-80.041"/>
<ellipse fill="none" stroke="#4cf39b" cx="283.658" cy="-226.323" rx="4.00001" ry="4.00001"/>
<polygon fill="#4cf39b" stroke="#4cf39b" points="894.66,-80.0378 905.433,-82.0856 899.523,-78.8735 904.385,-77.7093 904.385,-77.7093 904.385,-77.7093 899.523,-78.8735 903.338,-73.333 894.66,-80.0378 894.66,-80.0378"/>
</g>
<!-- Quiz&#45;&gt;QuizSubmission -->
<g id="edge34" class="edge"><title>Quiz&#45;&gt;QuizSubmission</title>
<path fill="none" stroke="#f87845" d="M149.777,-381.855C135.64,-359.034 120.661,-334.853 107.29,-313.268"/>
<ellipse fill="none" stroke="#f87845" cx="151.954" cy="-385.369" rx="4.00002" ry="4.00002"/>
<polygon fill="#f87845" stroke="#f87845" points="107.127,-313.006 105.687,-302.135 104.494,-308.755 101.861,-304.505 101.861,-304.505 101.861,-304.505 104.494,-308.755 98.0358,-306.874 107.127,-313.006 107.127,-313.006"/>
</g>
<!-- Quiz&#45;&gt;Question -->
<g id="edge33" class="edge"><title>Quiz&#45;&gt;Question</title>
<path fill="none" stroke="#a652f1" d="M208.605,-380.466C209.581,-355.962 210.615,-329.989 211.515,-307.412"/>
<ellipse fill="none" stroke="#a652f1" cx="208.434" cy="-384.773" rx="4" ry="4"/>
<polygon fill="#a652f1" stroke="#a652f1" points="211.519,-307.287 216.414,-297.474 211.718,-302.291 211.917,-297.295 211.917,-297.295 211.917,-297.295 211.718,-302.291 207.421,-297.116 211.519,-307.287 211.519,-307.287"/>
</g>
<!-- AnonymousUser -->
<g id="node14" class="node"><title>AnonymousUser</title>
<polygon fill="none" stroke="black" points="1553.5,-955 1553.5,-1001 1662.5,-1001 1662.5,-955 1553.5,-955"/>
<text text-anchor="middle" x="1608" y="-985.8" font-family="Times,serif" font-size="14.00">AnonymousUser</text>
<polyline fill="none" stroke="black" points="1553.5,-978 1662.5,-978 "/>
<text text-anchor="middle" x="1608" y="-962.8" font-family="Times,serif" font-size="14.00"> </text>
</g>
<!-- QuizChecker -->
<g id="node15" class="node"><title>QuizChecker</title>
<polygon fill="none" stroke="black" points="1681,-955 1681,-1001 1769,-1001 1769,-955 1681,-955"/>
<text text-anchor="middle" x="1725" y="-985.8" font-family="Times,serif" font-size="14.00">QuizChecker</text>
<polyline fill="none" stroke="black" points="1681,-978 1769,-978 "/>
<text text-anchor="middle" x="1725" y="-962.8" font-family="Times,serif" font-size="14.00"> </text>
</g>
<!-- CourseCategory -->
<g id="node16" class="node"><title>CourseCategory</title>
<path fill="none" stroke="black" d="M1271.5,-925C1271.5,-925 1378.5,-925 1378.5,-925 1384.5,-925 1390.5,-931 1390.5,-937 1390.5,-937 1390.5,-1019 1390.5,-1019 1390.5,-1025 1384.5,-1031 1378.5,-1031 1378.5,-1031 1271.5,-1031 1271.5,-1031 1265.5,-1031 1259.5,-1025 1259.5,-1019 1259.5,-1019 1259.5,-937 1259.5,-937 1259.5,-931 1265.5,-925 1271.5,-925"/>
<text text-anchor="middle" x="1325" y="-1015.8" font-family="Times,serif" font-size="14.00">CourseCategory</text>
<polyline fill="none" stroke="black" points="1259.5,-1008 1390.5,-1008 "/>
<text text-anchor="start" x="1267.5" y="-992.8" font-family="Times,serif" font-size="14.00">id :integer</text>
<text text-anchor="start" x="1267.5" y="-977.8" font-family="Times,serif" font-size="14.00">course_id :integer</text>
<text text-anchor="start" x="1267.5" y="-962.8" font-family="Times,serif" font-size="14.00">category_id :integer</text>
<text text-anchor="start" x="1267.5" y="-947.8" font-family="Times,serif" font-size="14.00">created_at :datetime</text>
<text text-anchor="start" x="1267.5" y="-932.8" font-family="Times,serif" font-size="14.00">updated_at :datetime</text>
</g>
<!-- AssignmentRunner -->
<g id="node17" class="node"><title>AssignmentRunner</title>
<polygon fill="none" stroke="black" points="1787,-955 1787,-1001 1909,-1001 1909,-955 1787,-955"/>
<text text-anchor="middle" x="1848" y="-985.8" font-family="Times,serif" font-size="14.00">AssignmentRunner</text>
<polyline fill="none" stroke="black" points="1787,-978 1909,-978 "/>
<text text-anchor="middle" x="1848" y="-962.8" font-family="Times,serif" font-size="14.00"> </text>
</g>
<!-- ActiveRecord::Base -->
<g id="node18" class="node"><title>ActiveRecord::Base</title>
<ellipse fill="none" stroke="black" cx="406" cy="-1169" rx="81.3646" ry="18"/>
<text text-anchor="middle" x="406" y="-1165.3" font-family="Times,serif" font-size="14.00">ActiveRecord::Base</text>
</g>
<!-- ActiveRecord::Base&#45;&gt;QuizSubmission -->
<g id="edge1" class="edge"><title>ActiveRecord::Base&#45;&gt;QuizSubmission</title>
<path fill="none" stroke="black" d="M374.33,-1152.21C357.173,-1144.32 335.37,-1135.34 315,-1130 220.711,-1105.29 167.401,-1161.44 99,-1092 62.1964,-1054.64 65,-1031.45 65,-979 65,-979 65,-979 65,-471 65,-414.696 65,-350.502 65,-304.955"/>
</g>
<!-- ActiveRecord::Base&#45;&gt;User -->
<g id="edge15" class="edge"><title>ActiveRecord::Base&#45;&gt;User</title>
<path fill="none" stroke="black" d="M429.314,-1151.56C468.347,-1124.03 548.333,-1067.62 606.253,-1026.78"/>
</g>
<!-- ActiveRecord::Base&#45;&gt;Lesson -->
<g id="edge16" class="edge"><title>ActiveRecord::Base&#45;&gt;Lesson</title>
<path fill="none" stroke="black" d="M404.657,-1150.72C400.846,-1104.09 388.804,-971.966 367,-864 365.356,-855.861 363.835,-854.098 362,-846 358.609,-831.035 357.338,-827.286 356,-812 347.626,-716.366 336.605,-690.02 356,-596 358.278,-584.955 361.596,-573.681 365.477,-562.66"/>
</g>
<!-- ActiveRecord::Base&#45;&gt;Assignment -->
<g id="edge18" class="edge"><title>ActiveRecord::Base&#45;&gt;Assignment</title>
<path fill="none" stroke="black" d="M482.504,-1162.71C604.485,-1153.24 836.668,-1130.68 909,-1092 1054.05,-1014.44 1110.55,-971.432 1151,-812 1170.51,-735.11 1163.44,-645.439 1152.34,-577.641"/>
</g>
<!-- ActiveRecord::Base&#45;&gt;Category -->
<g id="edge19" class="edge"><title>ActiveRecord::Base&#45;&gt;Category</title>
<path fill="none" stroke="black" d="M395.773,-1150.89C378.768,-1122.45 344.146,-1064.54 319.801,-1023.83"/>
</g>
<!-- ActiveRecord::Base&#45;&gt;Course -->
<g id="edge28" class="edge"><title>ActiveRecord::Base&#45;&gt;Course</title>
<path fill="none" stroke="black" d="M480.453,-1161.74C552.463,-1153.38 663.143,-1134.36 750,-1092 904.362,-1016.72 974.794,-1001.36 1048,-846 1061.18,-818.026 1043.79,-791.098 1019.77,-769.526"/>
</g>
<!-- ActiveRecord::Base&#45;&gt;Question -->
<g id="edge30" class="edge"><title>ActiveRecord::Base&#45;&gt;Question</title>
<path fill="none" stroke="black" d="M374.294,-1152.35C357.127,-1144.49 335.326,-1135.51 315,-1130 240.273,-1109.76 195.452,-1150.72 145,-1092 110.084,-1051.36 103,-1032.58 103,-979 103,-979 103,-979 103,-471 103,-423.653 102.017,-409.375 121,-366 131.782,-341.364 148.634,-317.242 165.047,-297.1"/>
</g>
<!-- ActiveRecord::Base&#45;&gt;CourseRole -->
<g id="edge31" class="edge"><title>ActiveRecord::Base&#45;&gt;CourseRole</title>
<path fill="none" stroke="black" d="M407.78,-1150.86C408.869,-1139.79 410.201,-1125.06 411,-1112 417.546,-1005.03 367.177,-718.919 427,-630 460.617,-580.033 620.983,-522.714 713.238,-493.084"/>
</g>
<!-- ActiveRecord::Base&#45;&gt;AssignmentSubmission -->
<g id="edge32" class="edge"><title>ActiveRecord::Base&#45;&gt;AssignmentSubmission</title>
<path fill="none" stroke="black" d="M370.202,-1152.84C353.469,-1145.8 333.251,-1137.38 315,-1130 272.079,-1112.63 244.094,-1130.25 218,-1092 153.033,-996.774 264.374,-690.83 288,-578 307.603,-484.384 257.297,-433.561 325,-366 412.596,-278.588 792.24,-253.898 953.791,-247.284"/>
</g>
<!-- ActiveRecord::Base&#45;&gt;Quiz -->
<g id="edge35" class="edge"><title>ActiveRecord::Base&#45;&gt;Quiz</title>
<path fill="none" stroke="black" d="M374.285,-1152.38C357.116,-1144.54 335.315,-1135.55 315,-1130 286.866,-1122.32 204.156,-1133.99 185,-1112 114.603,-1031.18 161.803,-708.641 189.234,-555.078"/>
</g>
<!-- ActiveRecord::Base&#45;&gt;Answer -->
<g id="edge36" class="edge"><title>ActiveRecord::Base&#45;&gt;Answer</title>
<path fill="none" stroke="black" d="M486.607,-1166.55C694.198,-1160.65 1231,-1130.72 1231,-979 1231,-979 1231,-979 1231,-243 1231,-148.018 1112.84,-98.9093 1035.52,-76.9435"/>
</g>
<!-- ActiveRecord::Base&#45;&gt;CourseCategory -->
<g id="edge39" class="edge"><title>ActiveRecord::Base&#45;&gt;CourseCategory</title>
<path fill="none" stroke="black" d="M486.83,-1166.83C684.588,-1163.36 1181.33,-1150.86 1245,-1112 1274.79,-1093.82 1294.91,-1060 1307.52,-1031.02"/>
</g>
<!-- Object -->
<g id="node19" class="node"><title>Object</title>
<ellipse fill="none" stroke="black" cx="1608" cy="-1169" rx="34.1708" ry="18"/>
<text text-anchor="middle" x="1608" y="-1165.3" font-family="Times,serif" font-size="14.00">Object</text>
</g>
<!-- Object&#45;&gt;AssignmentChecker -->
<g id="edge2" class="edge"><title>Object&#45;&gt;AssignmentChecker</title>
<path fill="none" stroke="black" d="M1594.16,-1152.43C1581,-1137.37 1560.91,-1113.7 1545,-1092 1522.62,-1061.49 1499.33,-1024.34 1485.25,-1001.18"/>
</g>
<!-- Object&#45;&gt;AnonymousUser -->
<g id="edge37" class="edge"><title>Object&#45;&gt;AnonymousUser</title>
<path fill="none" stroke="black" d="M1608,-1150.89C1608,-1116.55 1608,-1039.22 1608,-1001.1"/>
</g>
<!-- Object&#45;&gt;QuizChecker -->
<g id="edge38" class="edge"><title>Object&#45;&gt;QuizChecker</title>
<path fill="none" stroke="black" d="M1622.74,-1152.58C1636.35,-1137.82 1656.6,-1114.52 1671,-1092 1690.09,-1062.14 1706.77,-1024.5 1716.36,-1001.08"/>
</g>
<g id="node22" class="node"><title></title>
<ellipse fill="none" stroke="black" cx="1848" cy="-1169" rx="27" ry="18"/>
</g>
<!-- &#45;&gt;AssignmentRunner -->
<g id="edge40" class="edge"><title>&#45;&gt;AssignmentRunner</title>
<path fill="none" stroke="black" d="M1848,-1150.89C1848,-1116.55 1848,-1039.22 1848,-1001.1"/>
</g>
</g>
</svg>
