<?xml version="1.0" encoding="UTF-8" standalone="no"?>
<!DOCTYPE svg PUBLIC "-//W3C//DTD SVG 1.1//EN"
 "http://www.w3.org/Graphics/SVG/1.1/DTD/svg11.dtd">
<!-- Generated by graphviz version 2.36.0 (20140111.2315)
 -->
<!-- Title: models_diagram Pages: 1 -->
<svg width="1850pt" height="484pt"
 viewBox="0.00 0.00 1850.00 484.00" xmlns="http://www.w3.org/2000/svg" xmlns:xlink="http://www.w3.org/1999/xlink">
<g id="graph0" class="graph" transform="scale(1 1) rotate(0) translate(4 480)">
<title>models_diagram</title>
<polygon fill="white" stroke="none" points="-4,4 -4,-480 1846,-480 1846,4 -4,4"/>
<!-- _diagram_info -->
<g id="node1" class="node"><title>_diagram_info</title>
<text text-anchor="start" x="39" y="-461.6" font-family="Times,serif" font-size="13.00">Models diagram</text>
<text text-anchor="start" x="39" y="-447.6" font-family="Times,serif" font-size="13.00">Date: Jun 12 2014 &#45; 12:12</text>
<text text-anchor="start" x="39" y="-433.6" font-family="Times,serif" font-size="13.00">Migration version: 20140607155839</text>
<text text-anchor="start" x="39" y="-419.6" font-family="Times,serif" font-size="13.00">Generated by RailRoady 1.1.1</text>
<text text-anchor="start" x="39" y="-405.6" font-family="Times,serif" font-size="13.00">http://railroady.prestonlee.com</text>
</g>
<!-- QuizSubmission -->
<g id="node2" class="node"><title>QuizSubmission</title>
<ellipse fill="none" stroke="black" cx="69" cy="-92" rx="69.3156" ry="18"/>
<text text-anchor="middle" x="69" y="-88.3" font-family="Times,serif" font-size="14.00">QuizSubmission</text>
</g>
<!-- AssignmentChecker -->
<g id="node3" class="node"><title>AssignmentChecker</title>
<polygon fill="none" stroke="black" points="1468.25,-360 1341.75,-360 1341.75,-324 1468.25,-324 1468.25,-360"/>
<text text-anchor="middle" x="1405" y="-338.3" font-family="Times,serif" font-size="14.00">AssignmentChecker</text>
</g>
<!-- User -->
<g id="node4" class="node"><title>User</title>
<ellipse fill="none" stroke="black" cx="624" cy="-342" rx="26.949" ry="18"/>
<text text-anchor="middle" x="624" y="-338.3" font-family="Times,serif" font-size="14.00">User</text>
</g>
<!-- Lesson -->
<g id="node5" class="node"><title>Lesson</title>
<ellipse fill="none" stroke="black" cx="358" cy="-166" rx="35.6194" ry="18"/>
<text text-anchor="middle" x="358" y="-162.3" font-family="Times,serif" font-size="14.00">Lesson</text>
</g>
<!-- User&#45;&gt;Lesson -->
<g id="edge7" class="edge"><title>User&#45;&gt;Lesson</title>
<path fill="none" stroke="#06e91f" d="M589.41,-335.924C528.436,-326.262 405.561,-303.361 377,-272 357.962,-251.096 354.871,-217.796 355.479,-194.311"/>
<ellipse fill="none" stroke="#06e91f" cx="593.634" cy="-336.583" rx="4.00001" ry="4.00001"/>
<polygon fill="#06e91f" stroke="#06e91f" points="355.481,-194.279 360.47,-184.513 355.728,-189.285 355.975,-184.291 355.975,-184.291 355.975,-184.291 355.728,-189.285 351.481,-184.068 355.481,-194.279 355.481,-194.279"/>
</g>
<!-- Assignment -->
<g id="node6" class="node"><title>Assignment</title>
<ellipse fill="none" stroke="black" cx="1079" cy="-166" rx="52.9443" ry="18"/>
<text text-anchor="middle" x="1079" y="-162.3" font-family="Times,serif" font-size="14.00">Assignment</text>
</g>
<!-- User&#45;&gt;Assignment -->
<g id="edge5" class="edge"><title>User&#45;&gt;Assignment</title>
<path fill="none" stroke="#3973c7" d="M659.667,-340.739C759.487,-339.658 1036.27,-334.127 1065,-306 1094.43,-277.188 1090.98,-225.443 1085.32,-193.864"/>
<ellipse fill="none" stroke="#3973c7" cx="655.4" cy="-340.782" rx="4" ry="4"/>
<polygon fill="#3973c7" stroke="#3973c7" points="1085.3,-193.798 1087.77,-183.113 1084.33,-188.894 1083.36,-183.99 1083.36,-183.99 1083.36,-183.99 1084.33,-188.894 1078.94,-184.866 1085.3,-193.798 1085.3,-193.798"/>
</g>
<!-- Course -->
<g id="node8" class="node"><title>Course</title>
<ellipse fill="none" stroke="black" cx="856" cy="-254" rx="35.6194" ry="18"/>
<text text-anchor="middle" x="856" y="-250.3" font-family="Times,serif" font-size="14.00">Course</text>
</g>
<!-- User&#45;&gt;Course -->
<g id="edge12" class="edge"><title>User&#45;&gt;Course</title>
<path fill="none" stroke="#eaae89" d="M658.4,-335.884C688.791,-330.65 733.917,-321.117 771,-306 773.967,-304.79 802.264,-287.719 825.406,-273.656"/>
<ellipse fill="none" stroke="#eaae89" cx="654.183" cy="-336.588" rx="4.00001" ry="4.00001"/>
<polygon fill="#eaae89" stroke="#eaae89" points="825.416,-273.65 836.298,-272.297 829.688,-271.051 833.96,-268.452 833.96,-268.452 833.96,-268.452 829.688,-271.051 831.621,-264.608 825.416,-273.65 825.416,-273.65"/>
</g>
<!-- User&#45;&gt;Course -->
<g id="edge13" class="edge"><title>User&#45;&gt;Course</title>
<path fill="none" stroke="#bc346e" d="M661.032,-338.82C697.073,-335.492 752.6,-327.105 796,-306 804.016,-302.102 819.435,-288.941 832.634,-276.966"/>
<polygon fill="#bc346e" stroke="#bc346e" points="660.924,-338.829 650.583,-335.181 655.942,-339.247 650.959,-339.665 650.959,-339.665 650.959,-339.665 655.942,-339.247 651.335,-344.149 660.924,-338.829 660.924,-338.829"/>
<polygon fill="#bc346e" stroke="#bc346e" points="832.711,-276.896 843.12,-273.446 836.394,-273.514 840.077,-270.132 840.077,-270.132 840.077,-270.132 836.394,-273.514 837.033,-266.817 832.711,-276.896 832.711,-276.896"/>
<text text-anchor="middle" x="862.5" y="-294.3" font-family="Times,serif" font-size="14.00">teached_courses</text>
</g>
<!-- User&#45;&gt;Course -->
<g id="edge14" class="edge"><title>User&#45;&gt;Course</title>
<path fill="none" stroke="#fd9d09" d="M661.516,-339.1C734.946,-334.997 891.924,-324.178 908,-306 918.602,-294.011 906.011,-281.412 890.569,-271.735"/>
<polygon fill="#fd9d09" stroke="#fd9d09" points="661.3,-339.112 651.07,-335.164 656.308,-339.384 651.315,-339.657 651.315,-339.657 651.315,-339.657 656.308,-339.384 651.56,-344.15 661.3,-339.112 661.3,-339.112"/>
<polygon fill="#fd9d09" stroke="#fd9d09" points="890.484,-271.686 884.077,-262.786 886.155,-269.184 881.826,-266.682 881.826,-266.682 881.826,-266.682 886.155,-269.184 879.574,-270.579 890.484,-271.686 890.484,-271.686"/>
<text text-anchor="middle" x="954" y="-294.3" font-family="Times,serif" font-size="14.00">signup_courses</text>
</g>
<!-- CourseRole -->
<g id="node10" class="node"><title>CourseRole</title>
<ellipse fill="none" stroke="black" cx="728" cy="-166" rx="51.4931" ry="18"/>
<text text-anchor="middle" x="728" y="-162.3" font-family="Times,serif" font-size="14.00">CourseRole</text>
</g>
<!-- User&#45;&gt;CourseRole -->
<g id="edge9" class="edge"><title>User&#45;&gt;CourseRole</title>
<path fill="none" stroke="#6fe633" d="M599.706,-322.728C594.948,-317.863 590.624,-312.21 588,-306 569.613,-262.48 575.753,-234.546 610,-202 625.841,-186.947 647.856,-178.335 668.585,-173.42"/>
<ellipse fill="none" stroke="#6fe633" cx="602.938" cy="-325.73" rx="4.00002" ry="4.00002"/>
<polygon fill="#6fe633" stroke="#6fe633" points="668.842,-173.366 679.557,-175.695 673.733,-172.329 678.624,-171.293 678.624,-171.293 678.624,-171.293 673.733,-172.329 677.692,-166.891 668.842,-173.366 668.842,-173.366"/>
</g>
<!-- User&#45;&gt;CourseRole -->
<g id="edge10" class="edge"><title>User&#45;&gt;CourseRole</title>
<path fill="none" stroke="#5227d5" d="M615.236,-316.365C614.313,-312.922 613.522,-309.4 613,-306 608.074,-273.895 614.234,-261.774 634,-236 649.491,-215.801 672.443,-198.798 691.788,-186.724"/>
<ellipse fill="none" stroke="#5227d5" cx="616.421" cy="-320.325" rx="4.00001" ry="4.00001"/>
<polygon fill="#5227d5" stroke="#5227d5" points="691.825,-186.702 702.711,-185.381 696.104,-184.116 700.383,-181.53 700.383,-181.53 700.383,-181.53 696.104,-184.116 698.056,-177.679 691.825,-186.702 691.825,-186.702"/>
<text text-anchor="middle" x="670.5" y="-250.3" font-family="Times,serif" font-size="14.00">student_roles</text>
</g>
<!-- User&#45;&gt;CourseRole -->
<g id="edge11" class="edge"><title>User&#45;&gt;CourseRole</title>
<path fill="none" stroke="#64e357" d="M625.752,-315.541C627.612,-306.407 631.197,-296.717 638,-290 660.552,-267.733 685.246,-295.048 707,-272 726.475,-251.366 730.193,-218.014 730.019,-194.443"/>
<ellipse fill="none" stroke="#64e357" cx="625.102" cy="-319.718" rx="4.00001" ry="4.00001"/>
<polygon fill="#64e357" stroke="#64e357" points="730.018,-194.377 734.207,-184.243 729.863,-189.38 729.709,-184.382 729.709,-184.382 729.709,-184.382 729.863,-189.38 725.211,-184.521 730.018,-194.377 730.018,-194.377"/>
<text text-anchor="middle" x="762.5" y="-250.3" font-family="Times,serif" font-size="14.00">teacher_roles</text>
</g>
<!-- AssignmentSubmission -->
<g id="node11" class="node"><title>AssignmentSubmission</title>
<ellipse fill="none" stroke="black" cx="998" cy="-92" rx="94.338" ry="18"/>
<text text-anchor="middle" x="998" y="-88.3" font-family="Times,serif" font-size="14.00">AssignmentSubmission</text>
</g>
<!-- User&#45;&gt;AssignmentSubmission -->
<g id="edge8" class="edge"><title>User&#45;&gt;AssignmentSubmission</title>
<path fill="none" stroke="#3f8aa6" d="M659.321,-340.361C748.501,-338.384 977.301,-330.91 1000,-306 1024.07,-279.588 1010.66,-171.67 1002.64,-120.355"/>
<ellipse fill="none" stroke="#3f8aa6" cx="655.137" cy="-340.45" rx="4" ry="4"/>
<polygon fill="#3f8aa6" stroke="#3f8aa6" points="1002.61,-120.187 1005.47,-109.6 1001.82,-115.251 1001.03,-110.314 1001.03,-110.314 1001.03,-110.314 1001.82,-115.251 996.582,-111.028 1002.61,-120.187 1002.61,-120.187"/>
</g>
<!-- Quiz -->
<g id="node12" class="node"><title>Quiz</title>
<ellipse fill="none" stroke="black" cx="176" cy="-166" rx="27.4223" ry="18"/>
<text text-anchor="middle" x="176" y="-162.3" font-family="Times,serif" font-size="14.00">Quiz</text>
</g>
<!-- User&#45;&gt;Quiz -->
<g id="edge6" class="edge"><title>User&#45;&gt;Quiz</title>
<path fill="none" stroke="#09fb77" d="M588.617,-339.698C543.883,-337.097 465.094,-329.31 402,-306 322.496,-276.628 240.528,-217.671 200.709,-186.831"/>
<ellipse fill="none" stroke="#09fb77" cx="592.835" cy="-339.924" rx="4" ry="4"/>
<polygon fill="#09fb77" stroke="#09fb77" points="200.518,-186.681 195.415,-176.975 196.58,-183.6 192.642,-180.519 192.642,-180.519 192.642,-180.519 196.58,-183.6 189.869,-184.063 200.518,-186.681 200.518,-186.681"/>
</g>
<!-- UserRole -->
<g id="node20" class="node"><title>UserRole</title>
<ellipse fill="none" stroke="black" cx="430" cy="-254" rx="44.2946" ry="18"/>
<text text-anchor="middle" x="430" y="-250.3" font-family="Times,serif" font-size="14.00">UserRole</text>
</g>
<!-- User&#45;&gt;UserRole -->
<g id="edge3" class="edge"><title>User&#45;&gt;UserRole</title>
<path fill="none" stroke="#e7a9ad" d="M593.948,-328.597C578.139,-322.004 558.465,-313.692 541,-306 516.147,-295.054 488.385,-282.298 466.842,-272.282"/>
<ellipse fill="none" stroke="#e7a9ad" cx="597.678" cy="-330.148" rx="4.00002" ry="4.00002"/>
<polygon fill="#e7a9ad" stroke="#e7a9ad" points="466.781,-272.253 459.617,-263.951 462.249,-270.141 457.717,-268.03 457.717,-268.03 457.717,-268.03 462.249,-270.141 455.816,-272.109 466.781,-272.253 466.781,-272.253"/>
</g>
<!-- Role -->
<g id="node21" class="node"><title>Role</title>
<ellipse fill="none" stroke="black" cx="519" cy="-254" rx="26.949" ry="18"/>
<text text-anchor="middle" x="519" y="-250.3" font-family="Times,serif" font-size="14.00">Role</text>
</g>
<!-- User&#45;&gt;Role -->
<g id="edge4" class="edge"><title>User&#45;&gt;Role</title>
<path fill="none" stroke="#7fcf63" d="M592.411,-326.868C581.546,-321.217 569.688,-314.111 560,-306 550.891,-298.373 542.382,-288.467 535.503,-279.416"/>
<polygon fill="#7fcf63" stroke="#7fcf63" points="592.669,-326.996 599.62,-335.478 597.146,-329.222 601.623,-331.448 601.623,-331.448 601.623,-331.448 597.146,-329.222 603.627,-327.419 592.669,-326.996 592.669,-326.996"/>
<polygon fill="#7fcf63" stroke="#7fcf63" points="535.333,-279.183 533.077,-268.451 532.387,-275.143 529.441,-271.103 529.441,-271.103 529.441,-271.103 532.387,-275.143 525.805,-273.754 535.333,-279.183 535.333,-279.183"/>
</g>
<!-- Assignment&#45;&gt;AssignmentSubmission -->
<g id="edge17" class="edge"><title>Assignment&#45;&gt;AssignmentSubmission</title>
<path fill="none" stroke="#e5f8ee" d="M1054.89,-143.572C1045.27,-135.019 1034.16,-125.145 1024.33,-116.405"/>
<ellipse fill="none" stroke="#e5f8ee" cx="1058.03" cy="-146.363" rx="4.00002" ry="4.00002"/>
<polygon fill="#e5f8ee" stroke="#e5f8ee" points="1024.24,-116.329 1019.76,-106.322 1020.51,-113.007 1016.77,-109.685 1016.77,-109.685 1016.77,-109.685 1020.51,-113.007 1013.78,-113.048 1024.24,-116.329 1024.24,-116.329"/>
</g>
<!-- Category -->
<g id="node7" class="node"><title>Category</title>
<ellipse fill="none" stroke="black" cx="254" cy="-342" rx="42.3456" ry="18"/>
<text text-anchor="middle" x="254" y="-338.3" font-family="Times,serif" font-size="14.00">Category</text>
</g>
<!-- Course&#45;&gt;User -->
<g id="edge26" class="edge"><title>Course&#45;&gt;User</title>
<path fill="none" stroke="#e292e0" d="M818.752,-268.6C814.487,-269.877 810.173,-271.048 806,-272 741.399,-286.744 714.424,-255.258 658,-290 648.249,-296.004 640.688,-305.972 635.199,-315.51"/>
<polygon fill="#e292e0" stroke="#e292e0" points="818.998,-268.521 829.894,-269.765 823.761,-267 828.524,-265.478 828.524,-265.478 828.524,-265.478 823.761,-267 827.155,-261.191 818.998,-268.521 818.998,-268.521"/>
<polygon fill="#e292e0" stroke="#e292e0" points="635.196,-315.516 626.578,-322.297 632.882,-319.948 630.567,-324.38 630.567,-324.38 630.567,-324.38 632.882,-319.948 634.556,-326.463 635.196,-315.516 635.196,-315.516"/>
<text text-anchor="middle" x="680.5" y="-294.3" font-family="Times,serif" font-size="14.00">students</text>
</g>
<!-- Course&#45;&gt;User -->
<g id="edge27" class="edge"><title>Course&#45;&gt;User</title>
<path fill="none" stroke="#e4fc7b" d="M818.504,-268.274C814.307,-269.602 810.076,-270.874 806,-272 769.196,-282.163 756.288,-273.204 722,-290 712.086,-294.856 712.362,-300.15 703,-306 688.632,-314.977 671.566,-322.846 656.979,-328.836"/>
<polygon fill="#e4fc7b" stroke="#e4fc7b" points="818.645,-268.227 829.55,-269.387 823.396,-266.669 828.147,-265.111 828.147,-265.111 828.147,-265.111 823.396,-266.669 826.745,-260.835 818.645,-268.227 818.645,-268.227"/>
<polygon fill="#e4fc7b" stroke="#e4fc7b" points="656.63,-328.975 645.675,-328.493 651.985,-330.824 647.34,-332.674 647.34,-332.674 647.34,-332.674 651.985,-330.824 649.004,-336.855 656.63,-328.975 656.63,-328.975"/>
<text text-anchor="middle" x="744.5" y="-294.3" font-family="Times,serif" font-size="14.00">teachers</text>
</g>
<!-- Course&#45;&gt;Lesson -->
<g id="edge20" class="edge"><title>Course&#45;&gt;Lesson</title>
<path fill="none" stroke="#410e23" d="M820.845,-240.191C815.901,-238.641 810.851,-237.188 806,-236 660.615,-200.379 483.951,-179.599 402.751,-171.271"/>
<ellipse fill="none" stroke="#410e23" cx="824.683" cy="-241.443" rx="4.00001" ry="4.00001"/>
<polygon fill="#410e23" stroke="#410e23" points="402.352,-171.231 392.855,-165.747 397.377,-170.728 392.402,-170.225 392.402,-170.225 392.402,-170.225 397.377,-170.728 391.949,-174.702 402.352,-171.231 402.352,-171.231"/>
</g>
<!-- Course&#45;&gt;Assignment -->
<g id="edge21" class="edge"><title>Course&#45;&gt;Assignment</title>
<path fill="none" stroke="#86d9f1" d="M891.381,-239.613C908.495,-233.119 929.329,-225.186 948,-218 977.487,-206.651 1010.65,-193.738 1036.23,-183.745"/>
<ellipse fill="none" stroke="#86d9f1" cx="887.54" cy="-241.069" rx="4.00001" ry="4.00001"/>
<polygon fill="#86d9f1" stroke="#86d9f1" points="1036.33,-183.708 1047.28,-184.259 1040.99,-181.888 1045.64,-180.067 1045.64,-180.067 1045.64,-180.067 1040.99,-181.888 1044.01,-175.876 1036.33,-183.708 1036.33,-183.708"/>
</g>
<!-- Course&#45;&gt;CourseRole -->
<g id="edge23" class="edge"><title>Course&#45;&gt;CourseRole</title>
<path fill="none" stroke="#8d2b1e" d="M894.607,-242.316C919.857,-233.417 945.663,-219.408 931,-202 913.089,-180.736 842.055,-172.391 789.032,-169.116"/>
<ellipse fill="none" stroke="#8d2b1e" cx="890.628" cy="-243.644" rx="4.00001" ry="4.00001"/>
<polygon fill="#8d2b1e" stroke="#8d2b1e" points="789.007,-169.114 779.28,-164.051 784.015,-168.829 779.024,-168.544 779.024,-168.544 779.024,-168.544 784.015,-168.829 778.767,-173.036 789.007,-169.114 789.007,-169.114"/>
</g>
<!-- Course&#45;&gt;CourseRole -->
<g id="edge24" class="edge"><title>Course&#45;&gt;CourseRole</title>
<path fill="none" stroke="#318a63" d="M819.393,-240.583C795.106,-232.138 766.836,-221.828 762,-218 753.578,-211.333 746.512,-201.995 741.042,-193.129"/>
<ellipse fill="none" stroke="#318a63" cx="823.323" cy="-241.942" rx="4.00001" ry="4.00001"/>
<polygon fill="#318a63" stroke="#318a63" points="740.894,-192.871 739.834,-181.957 738.411,-188.531 735.929,-184.191 735.929,-184.191 735.929,-184.191 738.411,-188.531 732.023,-186.426 740.894,-192.871 740.894,-192.871"/>
<text text-anchor="middle" x="798.5" y="-206.3" font-family="Times,serif" font-size="14.00">student_roles</text>
</g>
<!-- Course&#45;&gt;CourseRole -->
<g id="edge25" class="edge"><title>Course&#45;&gt;CourseRole</title>
<path fill="none" stroke="#80fc32" d="M850.409,-227.889C847.243,-218.683 842.382,-208.852 835,-202 821.221,-189.211 802.691,-181.091 784.925,-175.937"/>
<ellipse fill="none" stroke="#80fc32" cx="851.619" cy="-231.898" rx="4.00001" ry="4.00001"/>
<polygon fill="#80fc32" stroke="#80fc32" points="784.839,-175.915 776.314,-169.017 780.004,-174.642 775.168,-173.369 775.168,-173.369 775.168,-173.369 780.004,-174.642 774.023,-177.72 784.839,-175.915 784.839,-175.915"/>
<text text-anchor="middle" x="883.5" y="-206.3" font-family="Times,serif" font-size="14.00">teacher_roles</text>
</g>
<!-- Course&#45;&gt;Quiz -->
<g id="edge22" class="edge"><title>Course&#45;&gt;Quiz</title>
<path fill="none" stroke="#e5699d" d="M820.896,-239.975C815.943,-238.458 810.878,-237.072 806,-236 792.551,-233.043 326.681,-185.57 313,-184 279.007,-180.099 240.322,-175.262 212.75,-171.746"/>
<ellipse fill="none" stroke="#e5699d" cx="824.735" cy="-241.213" rx="4.00001" ry="4.00001"/>
<polygon fill="#e5699d" stroke="#e5699d" points="212.678,-171.737 203.33,-166.004 207.719,-171.103 202.759,-170.468 202.759,-170.468 202.759,-170.468 207.719,-171.103 202.188,-174.932 212.678,-171.737 212.678,-171.737"/>
</g>
<!-- Question -->
<g id="node9" class="node"><title>Question</title>
<ellipse fill="none" stroke="black" cx="199" cy="-92" rx="42.3701" ry="18"/>
<text text-anchor="middle" x="199" y="-88.3" font-family="Times,serif" font-size="14.00">Question</text>
</g>
<!-- Answer -->
<g id="node13" class="node"><title>Answer</title>
<ellipse fill="none" stroke="black" cx="913" cy="-18" rx="38.0212" ry="18"/>
<text text-anchor="middle" x="913" y="-14.3" font-family="Times,serif" font-size="14.00">Answer</text>
</g>
<!-- Question&#45;&gt;Answer -->
<g id="edge29" class="edge"><title>Question&#45;&gt;Answer</title>
<path fill="none" stroke="#90b1f8" d="M247.554,-86.1038C378.401,-72.9091 737.153,-36.7325 866.08,-23.7314"/>
<ellipse fill="none" stroke="#90b1f8" cx="243.413" cy="-86.5213" rx="4" ry="4"/>
<polygon fill="#90b1f8" stroke="#90b1f8" points="866.091,-23.7305 876.492,-27.2043 871.065,-23.2288 876.04,-22.7271 876.04,-22.7271 876.04,-22.7271 871.065,-23.2288 875.589,-18.2498 866.091,-23.7305 866.091,-23.7305"/>
</g>
<!-- Quiz&#45;&gt;QuizSubmission -->
<g id="edge34" class="edge"><title>Quiz&#45;&gt;QuizSubmission</title>
<path fill="none" stroke="#2384fb" d="M150.692,-147.97C135.865,-137.993 116.994,-125.295 101.126,-114.617"/>
<ellipse fill="none" stroke="#2384fb" cx="154.043" cy="-150.225" rx="4.00002" ry="4.00002"/>
<polygon fill="#2384fb" stroke="#2384fb" points="100.96,-114.506 95.1761,-105.19 96.8121,-111.715 92.6638,-108.923 92.6638,-108.923 92.6638,-108.923 96.8121,-111.715 90.1515,-112.657 100.96,-114.506 100.96,-114.506"/>
</g>
<!-- Quiz&#45;&gt;Question -->
<g id="edge33" class="edge"><title>Quiz&#45;&gt;Question</title>
<path fill="none" stroke="#10c0ce" d="M183.788,-140.619C185.94,-133.884 188.285,-126.541 190.476,-119.683"/>
<ellipse fill="none" stroke="#10c0ce" cx="182.552" cy="-144.49" rx="4.00001" ry="4.00001"/>
<polygon fill="#10c0ce" stroke="#10c0ce" points="190.492,-119.634 197.821,-111.478 192.013,-114.872 193.535,-110.109 193.535,-110.109 193.535,-110.109 192.013,-114.872 189.248,-108.739 190.492,-119.634 190.492,-119.634"/>
</g>
<!-- AnonymousUser -->
<g id="node14" class="node"><title>AnonymousUser</title>
<polygon fill="none" stroke="black" points="1595.25,-360 1486.75,-360 1486.75,-324 1595.25,-324 1595.25,-360"/>
<text text-anchor="middle" x="1541" y="-338.3" font-family="Times,serif" font-size="14.00">AnonymousUser</text>
</g>
<!-- QuizChecker -->
<g id="node15" class="node"><title>QuizChecker</title>
<polygon fill="none" stroke="black" points="1701.5,-360 1614.5,-360 1614.5,-324 1701.5,-324 1701.5,-360"/>
<text text-anchor="middle" x="1658" y="-338.3" font-family="Times,serif" font-size="14.00">QuizChecker</text>
</g>
<!-- CourseCategory -->
<g id="node16" class="node"><title>CourseCategory</title>
<ellipse fill="none" stroke="black" cx="1256" cy="-342" rx="67.3907" ry="18"/>
<text text-anchor="middle" x="1256" y="-338.3" font-family="Times,serif" font-size="14.00">CourseCategory</text>
</g>
<!-- AssignmentRunner -->
<g id="node17" class="node"><title>AssignmentRunner</title>
<polygon fill="none" stroke="black" points="1842,-360 1720,-360 1720,-324 1842,-324 1842,-360"/>
<text text-anchor="middle" x="1781" y="-338.3" font-family="Times,serif" font-size="14.00">AssignmentRunner</text>
</g>
<!-- ActiveRecord::Base -->
<g id="node18" class="node"><title>ActiveRecord::Base</title>
<ellipse fill="none" stroke="black" cx="344" cy="-437" rx="81.3646" ry="18"/>
<text text-anchor="middle" x="344" y="-433.3" font-family="Times,serif" font-size="14.00">ActiveRecord::Base</text>
</g>
<!-- ActiveRecord::Base&#45;&gt;QuizSubmission -->
<g id="edge1" class="edge"><title>ActiveRecord::Base&#45;&gt;QuizSubmission</title>
<path fill="none" stroke="black" d="M312.296,-420.338C295.13,-412.483 273.329,-403.496 253,-398 170.606,-375.723 69,-428.353 69,-343 69,-343 69,-343 69,-165 69,-146.25 69,-124.753 69,-110.166"/>
</g>
<!-- ActiveRecord::Base&#45;&gt;User -->
<g id="edge15" class="edge"><title>ActiveRecord::Base&#45;&gt;User</title>
<path fill="none" stroke="black" d="M387.136,-421.673C446.963,-401.801 553.08,-366.556 600.254,-350.887"/>
</g>
<!-- ActiveRecord::Base&#45;&gt;Lesson -->
<g id="edge16" class="edge"><title>ActiveRecord::Base&#45;&gt;Lesson</title>
<path fill="none" stroke="black" d="M338.478,-418.733C323.725,-371.275 285.838,-239.874 306,-202 311.523,-191.626 321.641,-183.775 331.493,-178.166"/>
</g>
<!-- ActiveRecord::Base&#45;&gt;Assignment -->
<g id="edge18" class="edge"><title>ActiveRecord::Base&#45;&gt;Assignment</title>
<path fill="none" stroke="black" d="M425.171,-435.132C544.858,-431.826 774.54,-417.702 960,-360 1017.79,-342.021 1041.53,-348.101 1085,-306 1118.64,-273.417 1115.42,-246.871 1102,-202 1100.04,-195.452 1096.42,-188.994 1092.62,-183.442"/>
</g>
<!-- ActiveRecord::Base&#45;&gt;Category -->
<g id="edge19" class="edge"><title>ActiveRecord::Base&#45;&gt;Category</title>
<path fill="none" stroke="black" d="M327.493,-418.942C310.949,-401.848 285.678,-375.734 269.5,-359.017"/>
</g>
<!-- ActiveRecord::Base&#45;&gt;Course -->
<g id="edge28" class="edge"><title>ActiveRecord::Base&#45;&gt;Course</title>
<path fill="none" stroke="black" d="M422.709,-432.449C580.731,-423.495 927.694,-394.041 1000,-306 1030.89,-268.391 943.508,-258.494 891.538,-255.905"/>
</g>
<!-- ActiveRecord::Base&#45;&gt;Question -->
<g id="edge30" class="edge"><title>ActiveRecord::Base&#45;&gt;Question</title>
<path fill="none" stroke="black" d="M311.295,-420.51C294.219,-412.895 272.806,-404.074 253,-398 186.707,-377.67 107,-412.34 107,-343 107,-343 107,-343 107,-165 107,-133.968 139.862,-114.311 166.305,-103.517"/>
</g>
<!-- ActiveRecord::Base&#45;&gt;CourseRole -->
<g id="edge31" class="edge"><title>ActiveRecord::Base&#45;&gt;CourseRole</title>
<path fill="none" stroke="black" d="M344.407,-418.752C345.803,-375.117 351.825,-261.957 377,-236 417.967,-193.76 590.613,-176.247 677.544,-169.998"/>
</g>
<!-- ActiveRecord::Base&#45;&gt;AssignmentSubmission -->
<g id="edge32" class="edge"><title>ActiveRecord::Base&#45;&gt;AssignmentSubmission</title>
<path fill="none" stroke="black" d="M306.032,-420.938C268.077,-405.015 213.71,-379.55 202,-360 151.912,-276.381 180.026,-228.455 313,-148 362.507,-118.046 730.362,-101.906 905.637,-95.8446"/>
</g>
<!-- ActiveRecord::Base&#45;&gt;Quiz -->
<g id="edge35" class="edge"><title>ActiveRecord::Base&#45;&gt;Quiz</title>
<path fill="none" stroke="black" d="M310.841,-420.417C293.827,-412.87 272.607,-404.137 253,-398 216.562,-386.595 193.003,-409.692 169,-380 122.014,-321.879 153.536,-222.862 168.925,-183.676"/>
</g>
<!-- ActiveRecord::Base&#45;&gt;Answer -->
<g id="edge36" class="edge"><title>ActiveRecord::Base&#45;&gt;Answer</title>
<path fill="none" stroke="black" d="M424.849,-435.152C630.981,-431.922 1160,-416.475 1160,-343 1160,-343 1160,-343 1160,-91 1160,-47.8408 1019.25,-28.8128 950.246,-22.0778"/>
</g>
<!-- ActiveRecord::Base&#45;&gt;CourseCategory -->
<g id="edge39" class="edge"><title>ActiveRecord::Base&#45;&gt;CourseCategory</title>
<path fill="none" stroke="black" d="M424.315,-434.209C603.978,-429.616 1033.56,-415.205 1174,-380 1192.94,-375.253 1212.93,-366.32 1228.44,-358.421"/>
</g>
<!-- Object -->
<g id="node19" class="node"><title>Object</title>
<ellipse fill="none" stroke="black" cx="1541" cy="-437" rx="34.1708" ry="18"/>
<text text-anchor="middle" x="1541" y="-433.3" font-family="Times,serif" font-size="14.00">Object</text>
</g>
<!-- Object&#45;&gt;AssignmentChecker -->
<g id="edge2" class="edge"><title>Object&#45;&gt;AssignmentChecker</title>
<path fill="none" stroke="black" d="M1520.93,-422.278C1496.85,-405.806 1456.43,-378.17 1430.25,-360.264"/>
</g>
<!-- Object&#45;&gt;AnonymousUser -->
<g id="edge37" class="edge"><title>Object&#45;&gt;AnonymousUser</title>
<path fill="none" stroke="black" d="M1541,-418.942C1541,-402.267 1541,-377.01 1541,-360.264"/>
</g>
<!-- Object&#45;&gt;QuizChecker -->
<g id="edge38" class="edge"><title>Object&#45;&gt;QuizChecker</title>
<path fill="none" stroke="black" d="M1559.02,-421.673C1579.92,-405.062 1614.33,-377.709 1636.58,-360.028"/>
</g>
<g id="node22" class="node"><title></title>
<ellipse fill="none" stroke="black" cx="1781" cy="-437" rx="27" ry="18"/>
</g>
<!-- &#45;&gt;AssignmentRunner -->
<g id="edge40" class="edge"><title>&#45;&gt;AssignmentRunner</title>
<path fill="none" stroke="black" d="M1781,-418.942C1781,-402.267 1781,-377.01 1781,-360.264"/>
</g>
</g>
</svg>
